<svg width="245" height="61" viewBox="0 0 245 61" fill="none" xmlns="http://www.w3.org/2000/svg">
<g filter="url(#filter0_d_88_497)">
<rect x="4" width="237" height="53" rx="15" fill="#0045A4"/>
<path d="M61.8457 27.6973H58.1445V25.7539H61.8457C62.4902 25.7539 63.0111 25.6497 63.4082 25.4414C63.8053 25.2331 64.0951 24.9466 64.2773 24.582C64.4661 24.2109 64.5605 23.7878 64.5605 23.3125C64.5605 22.8633 64.4661 22.4434 64.2773 22.0527C64.0951 21.6556 63.8053 21.3366 63.4082 21.0957C63.0111 20.8548 62.4902 20.7344 61.8457 20.7344H58.8965V33H56.4453V18.7812H61.8457C62.946 18.7812 63.8802 18.9766 64.6484 19.3672C65.4232 19.7513 66.0124 20.2852 66.416 20.9688C66.8197 21.6458 67.0215 22.4206 67.0215 23.293C67.0215 24.2109 66.8197 24.9987 66.416 25.6562C66.0124 26.3138 65.4232 26.8184 64.6484 27.1699C63.8802 27.5215 62.946 27.6973 61.8457 27.6973ZM71.3477 24.4453V33H68.9941V22.4336H71.2402L71.3477 24.4453ZM74.5801 22.3652L74.5605 24.5527C74.4173 24.5267 74.2611 24.5072 74.0918 24.4941C73.929 24.4811 73.7663 24.4746 73.6035 24.4746C73.1999 24.4746 72.8451 24.5332 72.5391 24.6504C72.2331 24.7611 71.9759 24.9238 71.7676 25.1387C71.5658 25.347 71.4095 25.6009 71.2988 25.9004C71.1882 26.1999 71.123 26.5352 71.1035 26.9062L70.5664 26.9453C70.5664 26.2812 70.6315 25.666 70.7617 25.0996C70.8919 24.5332 71.0872 24.0352 71.3477 23.6055C71.6146 23.1758 71.9466 22.8405 72.3438 22.5996C72.7474 22.3587 73.2129 22.2383 73.7402 22.2383C73.8835 22.2383 74.0365 22.2513 74.1992 22.2773C74.3685 22.3034 74.4954 22.3327 74.5801 22.3652ZM80.5176 33.1953C79.7363 33.1953 79.0299 33.0684 78.3984 32.8145C77.7734 32.554 77.2396 32.1927 76.7969 31.7305C76.3607 31.2682 76.0254 30.7246 75.791 30.0996C75.5566 29.4746 75.4395 28.8008 75.4395 28.0781V27.6875C75.4395 26.8607 75.5599 26.112 75.8008 25.4414C76.0417 24.7708 76.377 24.1979 76.8066 23.7227C77.2363 23.2409 77.7441 22.873 78.3301 22.6191C78.916 22.3652 79.5508 22.2383 80.2344 22.2383C80.9896 22.2383 81.6504 22.3652 82.2168 22.6191C82.7832 22.873 83.252 23.2311 83.623 23.6934C84.0007 24.1491 84.2806 24.6927 84.4629 25.3242C84.6517 25.9557 84.7461 26.6523 84.7461 27.4141V28.4199H76.582V26.7305H82.4219V26.5449C82.4089 26.1217 82.3242 25.7246 82.168 25.3535C82.0182 24.9824 81.7871 24.6829 81.4746 24.4551C81.1621 24.2272 80.7454 24.1133 80.2246 24.1133C79.834 24.1133 79.4857 24.1979 79.1797 24.3672C78.8802 24.5299 78.6296 24.7676 78.4277 25.0801C78.2259 25.3926 78.0697 25.7702 77.959 26.2129C77.8548 26.6491 77.8027 27.1406 77.8027 27.6875V28.0781C77.8027 28.5404 77.8646 28.9701 77.9883 29.3672C78.1185 29.7578 78.3073 30.0996 78.5547 30.3926C78.8021 30.6855 79.1016 30.9167 79.4531 31.0859C79.8047 31.2487 80.2051 31.3301 80.6543 31.3301C81.2207 31.3301 81.7253 31.2161 82.168 30.9883C82.6107 30.7604 82.9948 30.4382 83.3203 30.0215L84.5605 31.2227C84.3327 31.5547 84.0365 31.8737 83.6719 32.1797C83.3073 32.4792 82.8613 32.7233 82.334 32.9121C81.8132 33.1009 81.2077 33.1953 80.5176 33.1953ZM89.8828 31.1348L92.4707 22.4336H94.9121L91.2402 33H89.7168L89.8828 31.1348ZM87.9004 22.4336L90.5371 31.1738L90.6641 33H89.1406L85.4492 22.4336H87.9004ZM98.8867 22.4336V33H96.5234V22.4336H98.8867ZM96.3672 19.6602C96.3672 19.3021 96.4844 19.0059 96.7188 18.7715C96.9596 18.5306 97.2917 18.4102 97.7148 18.4102C98.1315 18.4102 98.4603 18.5306 98.7012 18.7715C98.9421 19.0059 99.0625 19.3021 99.0625 19.6602C99.0625 20.0117 98.9421 20.3047 98.7012 20.5391C98.4603 20.7734 98.1315 20.8906 97.7148 20.8906C97.2917 20.8906 96.9596 20.7734 96.7188 20.5391C96.4844 20.3047 96.3672 20.0117 96.3672 19.6602ZM106.123 33.1953C105.342 33.1953 104.635 33.0684 104.004 32.8145C103.379 32.554 102.845 32.1927 102.402 31.7305C101.966 31.2682 101.631 30.7246 101.396 30.0996C101.162 29.4746 101.045 28.8008 101.045 28.0781V27.6875C101.045 26.8607 101.165 26.112 101.406 25.4414C101.647 24.7708 101.982 24.1979 102.412 23.7227C102.842 23.2409 103.35 22.873 103.936 22.6191C104.521 22.3652 105.156 22.2383 105.84 22.2383C106.595 22.2383 107.256 22.3652 107.822 22.6191C108.389 22.873 108.857 23.2311 109.229 23.6934C109.606 24.1491 109.886 24.6927 110.068 25.3242C110.257 25.9557 110.352 26.6523 110.352 27.4141V28.4199H102.188V26.7305H108.027V26.5449C108.014 26.1217 107.93 25.7246 107.773 25.3535C107.624 24.9824 107.393 24.6829 107.08 24.4551C106.768 24.2272 106.351 24.1133 105.83 24.1133C105.439 24.1133 105.091 24.1979 104.785 24.3672C104.486 24.5299 104.235 24.7676 104.033 25.0801C103.831 25.3926 103.675 25.7702 103.564 26.2129C103.46 26.6491 103.408 27.1406 103.408 27.6875V28.0781C103.408 28.5404 103.47 28.9701 103.594 29.3672C103.724 29.7578 103.913 30.0996 104.16 30.3926C104.408 30.6855 104.707 30.9167 105.059 31.0859C105.41 31.2487 105.811 31.3301 106.26 31.3301C106.826 31.3301 107.331 31.2161 107.773 30.9883C108.216 30.7604 108.6 30.4382 108.926 30.0215L110.166 31.2227C109.938 31.5547 109.642 31.8737 109.277 32.1797C108.913 32.4792 108.467 32.7233 107.939 32.9121C107.419 33.1009 106.813 33.1953 106.123 33.1953ZM115.059 30.6562L117.5 22.4336H119.004L118.594 24.8945L116.133 33H114.785L115.059 30.6562ZM113.623 22.4336L115.527 30.6953L115.684 33H114.18L111.318 22.4336H113.623ZM121.289 30.5977L123.135 22.4336H125.43L122.578 33H121.074L121.289 30.5977ZM119.258 22.4336L121.67 30.5586L121.973 33H120.625L118.135 24.8848L117.725 22.4336H119.258ZM135.078 31.8477L137.949 22.4336H140.469L136.23 34.6113C136.133 34.8717 136.006 35.1549 135.85 35.4609C135.693 35.7669 135.488 36.0566 135.234 36.3301C134.987 36.61 134.678 36.8346 134.307 37.0039C133.936 37.1797 133.486 37.2676 132.959 37.2676C132.751 37.2676 132.549 37.248 132.354 37.209C132.165 37.1764 131.986 37.1406 131.816 37.1016L131.807 35.3047C131.872 35.3112 131.95 35.3177 132.041 35.3242C132.139 35.3307 132.217 35.334 132.275 35.334C132.666 35.334 132.992 35.2852 133.252 35.1875C133.512 35.0964 133.724 34.9466 133.887 34.7383C134.056 34.5299 134.199 34.25 134.316 33.8984L135.078 31.8477ZM133.457 22.4336L135.967 30.3438L136.387 32.8242L134.756 33.2441L130.918 22.4336H133.457ZM141.211 27.834V27.6094C141.211 26.8477 141.322 26.1413 141.543 25.4902C141.764 24.8327 142.083 24.263 142.5 23.7812C142.923 23.293 143.438 22.9154 144.043 22.6484C144.655 22.375 145.345 22.2383 146.113 22.2383C146.888 22.2383 147.578 22.375 148.184 22.6484C148.796 22.9154 149.313 23.293 149.736 23.7812C150.16 24.263 150.482 24.8327 150.703 25.4902C150.924 26.1413 151.035 26.8477 151.035 27.6094V27.834C151.035 28.5957 150.924 29.3021 150.703 29.9531C150.482 30.6042 150.16 31.1738 149.736 31.6621C149.313 32.1439 148.799 32.5215 148.193 32.7949C147.588 33.0618 146.901 33.1953 146.133 33.1953C145.358 33.1953 144.665 33.0618 144.053 32.7949C143.447 32.5215 142.933 32.1439 142.51 31.6621C142.087 31.1738 141.764 30.6042 141.543 29.9531C141.322 29.3021 141.211 28.5957 141.211 27.834ZM143.564 27.6094V27.834C143.564 28.3092 143.613 28.7585 143.711 29.1816C143.809 29.6048 143.962 29.9759 144.17 30.2949C144.378 30.6139 144.645 30.8646 144.971 31.0469C145.296 31.2292 145.684 31.3203 146.133 31.3203C146.569 31.3203 146.947 31.2292 147.266 31.0469C147.591 30.8646 147.858 30.6139 148.066 30.2949C148.275 29.9759 148.428 29.6048 148.525 29.1816C148.63 28.7585 148.682 28.3092 148.682 27.834V27.6094C148.682 27.1406 148.63 26.6979 148.525 26.2812C148.428 25.8581 148.271 25.4837 148.057 25.1582C147.848 24.8327 147.581 24.5788 147.256 24.3965C146.937 24.2077 146.556 24.1133 146.113 24.1133C145.671 24.1133 145.286 24.2077 144.961 24.3965C144.642 24.5788 144.378 24.8327 144.17 25.1582C143.962 25.4837 143.809 25.8581 143.711 26.2812C143.613 26.6979 143.564 27.1406 143.564 27.6094ZM159.365 30.5098V22.4336H161.729V33H159.502L159.365 30.5098ZM159.697 28.3125L160.488 28.293C160.488 29.0026 160.41 29.6569 160.254 30.2559C160.098 30.8483 159.857 31.3659 159.531 31.8086C159.206 32.2448 158.789 32.5866 158.281 32.834C157.773 33.0749 157.165 33.1953 156.455 33.1953C155.941 33.1953 155.469 33.1204 155.039 32.9707C154.609 32.821 154.238 32.5898 153.926 32.2773C153.62 31.9648 153.382 31.5579 153.213 31.0566C153.044 30.5553 152.959 29.9564 152.959 29.2598V22.4336H155.312V29.2793C155.312 29.6634 155.358 29.9857 155.449 30.2461C155.54 30.5 155.664 30.7051 155.82 30.8613C155.977 31.0176 156.159 31.1283 156.367 31.1934C156.576 31.2585 156.797 31.291 157.031 31.291C157.702 31.291 158.229 31.1608 158.613 30.9004C159.004 30.6335 159.281 30.2754 159.443 29.8262C159.613 29.377 159.697 28.8724 159.697 28.3125ZM175.078 30.8809V25.8418C175.078 25.4642 175.01 25.1387 174.873 24.8652C174.736 24.5918 174.528 24.3802 174.248 24.2305C173.975 24.0807 173.63 24.0059 173.213 24.0059C172.829 24.0059 172.497 24.071 172.217 24.2012C171.937 24.3314 171.719 24.5072 171.562 24.7285C171.406 24.9499 171.328 25.2005 171.328 25.4805H168.984C168.984 25.0638 169.085 24.6602 169.287 24.2695C169.489 23.8789 169.782 23.5306 170.166 23.2246C170.55 22.9186 171.009 22.6777 171.543 22.502C172.077 22.3262 172.676 22.2383 173.34 22.2383C174.134 22.2383 174.837 22.3717 175.449 22.6387C176.068 22.9056 176.553 23.3092 176.904 23.8496C177.262 24.3835 177.441 25.054 177.441 25.8613V30.5586C177.441 31.0404 177.474 31.4733 177.539 31.8574C177.611 32.235 177.712 32.5638 177.842 32.8438V33H175.43C175.319 32.7461 175.231 32.4238 175.166 32.0332C175.107 31.6361 175.078 31.252 175.078 30.8809ZM175.42 26.5742L175.439 28.0293H173.75C173.314 28.0293 172.93 28.0716 172.598 28.1562C172.266 28.2344 171.989 28.3516 171.768 28.5078C171.546 28.6641 171.38 28.8529 171.27 29.0742C171.159 29.2956 171.104 29.5462 171.104 29.8262C171.104 30.1061 171.169 30.3633 171.299 30.5977C171.429 30.8255 171.618 31.0046 171.865 31.1348C172.119 31.265 172.425 31.3301 172.783 31.3301C173.265 31.3301 173.685 31.2324 174.043 31.0371C174.408 30.8353 174.694 30.5911 174.902 30.3047C175.111 30.0117 175.221 29.735 175.234 29.4746L175.996 30.5195C175.918 30.7865 175.785 31.0729 175.596 31.3789C175.407 31.6849 175.16 31.9779 174.854 32.2578C174.554 32.5312 174.193 32.7559 173.77 32.9316C173.353 33.1074 172.871 33.1953 172.324 33.1953C171.634 33.1953 171.019 33.0586 170.479 32.7852C169.938 32.5052 169.515 32.1309 169.209 31.6621C168.903 31.1868 168.75 30.6497 168.75 30.0508C168.75 29.4909 168.854 28.9961 169.062 28.5664C169.277 28.1302 169.59 27.7656 170 27.4727C170.417 27.1797 170.924 26.9583 171.523 26.8086C172.122 26.6523 172.806 26.5742 173.574 26.5742H175.42ZM186.348 30.8125V18H188.711V33H186.572L186.348 30.8125ZM179.473 27.834V27.6289C179.473 26.8281 179.567 26.099 179.756 25.4414C179.945 24.7773 180.218 24.2077 180.576 23.7324C180.934 23.2507 181.37 22.8828 181.885 22.6289C182.399 22.3685 182.979 22.2383 183.623 22.2383C184.261 22.2383 184.821 22.362 185.303 22.6094C185.785 22.8568 186.195 23.2116 186.533 23.6738C186.872 24.1296 187.142 24.6764 187.344 25.3145C187.546 25.946 187.689 26.6491 187.773 27.4238V28.0781C187.689 28.8333 187.546 29.5234 187.344 30.1484C187.142 30.7734 186.872 31.3138 186.533 31.7695C186.195 32.2253 185.781 32.5768 185.293 32.8242C184.811 33.0716 184.248 33.1953 183.604 33.1953C182.965 33.1953 182.389 33.0618 181.875 32.7949C181.367 32.528 180.934 32.1536 180.576 31.6719C180.218 31.1901 179.945 30.6237 179.756 29.9727C179.567 29.3151 179.473 28.6022 179.473 27.834ZM181.826 27.6289V27.834C181.826 28.3158 181.868 28.765 181.953 29.1816C182.044 29.5983 182.184 29.9661 182.373 30.2852C182.562 30.5977 182.806 30.8451 183.105 31.0273C183.411 31.2031 183.776 31.291 184.199 31.291C184.733 31.291 185.173 31.1738 185.518 30.9395C185.863 30.7051 186.133 30.3893 186.328 29.9922C186.53 29.5885 186.667 29.1393 186.738 28.6445V26.877C186.699 26.4928 186.618 26.1348 186.494 25.8027C186.377 25.4707 186.217 25.181 186.016 24.9336C185.814 24.6797 185.563 24.4844 185.264 24.3477C184.971 24.2044 184.622 24.1328 184.219 24.1328C183.789 24.1328 183.424 24.224 183.125 24.4062C182.826 24.5885 182.578 24.8392 182.383 25.1582C182.194 25.4772 182.054 25.8483 181.963 26.2715C181.872 26.6947 181.826 27.1471 181.826 27.6289Z" fill="white"/>
</g>
<defs>
<filter id="filter0_d_88_497" x="0" y="0" width="245" height="61" filterUnits="userSpaceOnUse" color-interpolation-filters="sRGB">
<feFlood flood-opacity="0" result="BackgroundImageFix"/>
<feColorMatrix in="SourceAlpha" type="matrix" values="0 0 0 0 0 0 0 0 0 0 0 0 0 0 0 0 0 0 127 0" result="hardAlpha"/>
<feOffset dy="4"/>
<feGaussianBlur stdDeviation="2"/>
<feComposite in2="hardAlpha" operator="out"/>
<feColorMatrix type="matrix" values="0 0 0 0 0 0 0 0 0 0 0 0 0 0 0 0 0 0 0.25 0"/>
<feBlend mode="normal" in2="BackgroundImageFix" result="effect1_dropShadow_88_497"/>
<feBlend mode="normal" in="SourceGraphic" in2="effect1_dropShadow_88_497" result="shape"/>
</filter>
</defs>
</svg>
