<svg width="28" height="28" viewBox="0 0 28 28" fill="none" xmlns="http://www.w3.org/2000/svg">
<path d="M14 1.75C7.23516 1.75 1.75 7.23516 1.75 14C1.75 20.7648 7.23516 26.25 14 26.25C20.7648 26.25 26.25 20.7648 26.25 14C26.25 7.23516 20.7648 1.75 14 1.75ZM14.6098 19.9391L14.6152 20.8059C14.6152 20.9262 14.5168 21.0273 14.3965 21.0273H13.6199C13.4996 21.0273 13.4012 20.9289 13.4012 20.8086V19.95C10.973 19.7695 9.83008 18.3859 9.70703 16.882C9.69609 16.7535 9.79727 16.6441 9.92578 16.6441H11.1891C11.2957 16.6441 11.3887 16.7207 11.4051 16.8246C11.5445 17.6914 12.2199 18.3395 13.4313 18.5008V14.5988L12.7559 14.4266C11.3258 14.0848 9.96406 13.1934 9.96406 11.3449C9.96406 9.35156 11.4789 8.27969 13.4148 8.09102V7.18867C13.4148 7.06836 13.5133 6.96992 13.6336 6.96992H14.402C14.5223 6.96992 14.6207 7.06836 14.6207 7.18867V8.08281C16.4938 8.27148 17.8992 9.36523 18.0633 11.0687C18.077 11.1973 17.9758 11.3094 17.8445 11.3094H16.6168C16.5074 11.3094 16.4145 11.2273 16.4008 11.1207C16.2914 10.3223 15.6516 9.67148 14.6098 9.5293V13.2016L15.3043 13.3629C17.0762 13.8004 18.282 14.648 18.282 16.5457C18.282 18.6047 16.7508 19.7531 14.6098 19.9391ZM11.6648 11.2191C11.6648 11.9137 12.0941 12.4523 13.0184 12.7859C13.1469 12.8379 13.2754 12.8789 13.4285 12.9227V9.53203C12.4195 9.66055 11.6648 10.2266 11.6648 11.2191ZM14.8504 14.916C14.7738 14.8996 14.6973 14.8805 14.6098 14.8559V18.5117C15.7746 18.4078 16.5785 17.768 16.5785 16.6961C16.5785 15.8566 16.1437 15.3098 14.8504 14.916Z" fill="#F8F8F8"/>
</svg>
