<svg width="31" height="31" viewBox="0 0 31 31" fill="none" xmlns="http://www.w3.org/2000/svg">
<g filter="url(#filter0_d_305_241)">
<path d="M13.5 14.375C15.0878 14.375 16.375 13.0878 16.375 11.5C16.375 9.91218 15.0878 8.625 13.5 8.625C11.9122 8.625 10.625 9.91218 10.625 11.5C10.625 13.0878 11.9122 14.375 13.5 14.375Z" fill="#F8F8F8"/>
<path d="M14.4584 3.8993V1.9165H12.5417V3.8993C10.8552 4.1143 9.28782 4.88325 8.08563 6.08544C6.88343 7.28763 6.11448 8.855 5.89948 10.5415H3.91669V12.4582H5.89948C6.11433 14.1447 6.88323 15.7122 8.08545 16.9144C9.28767 18.1166 10.8551 18.8855 12.5417 19.1004V21.0832H14.4584V19.1004C16.1449 18.8855 17.7124 18.1166 18.9146 16.9144C20.1168 15.7122 20.8857 14.1447 21.1006 12.4582H23.0834V10.5415H21.1006C20.8856 8.855 20.1166 7.28763 18.9144 6.08544C17.7122 4.88325 16.1449 4.1143 14.4584 3.8993V3.8993ZM13.5 17.2498C10.3289 17.2498 7.75002 14.671 7.75002 11.4998C7.75002 8.32871 10.3289 5.74984 13.5 5.74984C16.6711 5.74984 19.25 8.32871 19.25 11.4998C19.25 14.671 16.6711 17.2498 13.5 17.2498Z" fill="#F8F8F8"/>
</g>
<defs>
<filter id="filter0_d_305_241" x="-1" y="-1" width="33" height="33" filterUnits="userSpaceOnUse" color-interpolation-filters="sRGB">
<feFlood flood-opacity="0" result="BackgroundImageFix"/>
<feColorMatrix in="SourceAlpha" type="matrix" values="0 0 0 0 0 0 0 0 0 0 0 0 0 0 0 0 0 0 127 0" result="hardAlpha"/>
<feOffset dx="2" dy="4"/>
<feGaussianBlur stdDeviation="2.5"/>
<feComposite in2="hardAlpha" operator="out"/>
<feColorMatrix type="matrix" values="0 0 0 0 0 0 0 0 0 0 0 0 0 0 0 0 0 0 0.25 0"/>
<feBlend mode="normal" in2="BackgroundImageFix" result="effect1_dropShadow_305_241"/>
<feBlend mode="normal" in="SourceGraphic" in2="effect1_dropShadow_305_241" result="shape"/>
</filter>
</defs>
</svg>
