<svg width="31" height="31" viewBox="0 0 31 31" fill="none" xmlns="http://www.w3.org/2000/svg">
<g filter="url(#filter0_d_13_479)">
<path d="M13.5 14.375C15.0878 14.375 16.375 13.0878 16.375 11.5C16.375 9.91218 15.0878 8.625 13.5 8.625C11.9122 8.625 10.625 9.91218 10.625 11.5C10.625 13.0878 11.9122 14.375 13.5 14.375Z" fill="#F8F8F8"/>
<path d="M14.4584 3.89948V1.91669H12.5417V3.89948C10.8552 4.11448 9.28782 4.88343 8.08563 6.08563C6.88343 7.28782 6.11448 8.85518 5.89948 10.5417H3.91669V12.4584H5.89948C6.11433 14.1449 6.88323 15.7124 8.08545 16.9146C9.28767 18.1168 10.8551 18.8857 12.5417 19.1006V21.0834H14.4584V19.1006C16.1449 18.8857 17.7124 18.1168 18.9146 16.9146C20.1168 15.7124 20.8857 14.1449 21.1006 12.4584H23.0834V10.5417H21.1006C20.8856 8.85518 20.1166 7.28782 18.9144 6.08563C17.7122 4.88343 16.1449 4.11448 14.4584 3.89948V3.89948ZM13.5 17.25C10.3289 17.25 7.75002 14.6711 7.75002 11.5C7.75002 8.3289 10.3289 5.75002 13.5 5.75002C16.6711 5.75002 19.25 8.3289 19.25 11.5C19.25 14.6711 16.6711 17.25 13.5 17.25Z" fill="#F8F8F8"/>
</g>
<defs>
<filter id="filter0_d_13_479" x="-1" y="-1" width="33" height="33" filterUnits="userSpaceOnUse" color-interpolation-filters="sRGB">
<feFlood flood-opacity="0" result="BackgroundImageFix"/>
<feColorMatrix in="SourceAlpha" type="matrix" values="0 0 0 0 0 0 0 0 0 0 0 0 0 0 0 0 0 0 127 0" result="hardAlpha"/>
<feOffset dx="2" dy="4"/>
<feGaussianBlur stdDeviation="2.5"/>
<feComposite in2="hardAlpha" operator="out"/>
<feColorMatrix type="matrix" values="0 0 0 0 0 0 0 0 0 0 0 0 0 0 0 0 0 0 0.25 0"/>
<feBlend mode="normal" in2="BackgroundImageFix" result="effect1_dropShadow_13_479"/>
<feBlend mode="normal" in="SourceGraphic" in2="effect1_dropShadow_13_479" result="shape"/>
</filter>
</defs>
</svg>
