<svg width="25" height="25" viewBox="0 0 25 25" fill="none" xmlns="http://www.w3.org/2000/svg">
<path d="M8.11776 11.3275C7.61144 11.3292 7.11408 11.4612 6.67354 11.7108C7.29377 10.1054 8.32246 8.6898 9.65781 7.60404C9.73421 7.54112 9.79747 7.46377 9.84398 7.3764C9.89049 7.28903 9.91933 7.19336 9.92887 7.09484C9.9384 6.99633 9.92844 6.8969 9.89955 6.80223C9.87065 6.70757 9.8234 6.61952 9.76048 6.54312C9.69756 6.46672 9.62021 6.40345 9.53284 6.35695C9.44547 6.31044 9.3498 6.28159 9.25128 6.27206C9.15277 6.26253 9.05334 6.27249 8.95867 6.30138C8.86401 6.33027 8.77596 6.37753 8.69956 6.44045C5.9617 8.66496 4.74335 11.7451 4.74335 13.6547C4.74806 14.3299 4.94928 14.9892 5.32243 15.5519C5.69558 16.1147 6.22452 16.5566 6.84466 16.8238C7.246 17.0182 7.68551 17.1211 8.13145 17.125C8.52396 17.144 8.91626 17.0832 9.28456 16.9461C9.65286 16.8091 9.98949 16.5986 10.274 16.3276C10.5586 16.0565 10.7851 15.7305 10.9399 15.3693C11.0947 15.0081 11.1745 14.6192 11.1745 14.2262C11.1745 13.8333 11.0947 13.4444 10.9399 13.0832C10.7851 12.722 10.5586 12.3959 10.274 12.1249C9.98949 11.8539 9.65286 11.6434 9.28456 11.5064C8.91626 11.3693 8.52396 11.3085 8.13145 11.3275H8.11776Z" fill="#0045A4"/>
<path d="M15.7427 11.3274C15.2363 11.3285 14.7388 11.4606 14.2985 11.7107C14.9185 10.107 15.9444 8.69184 17.2759 7.60393C17.3592 7.54385 17.4294 7.46737 17.4821 7.37916C17.5347 7.29096 17.5688 7.19292 17.5822 7.09106C17.5955 6.9892 17.5879 6.88569 17.5598 6.78689C17.5316 6.68809 17.4835 6.59609 17.4185 6.51656C17.3535 6.43703 17.2729 6.37165 17.1816 6.32444C17.0904 6.27723 16.9905 6.2492 16.888 6.24206C16.7855 6.23491 16.6826 6.24882 16.5857 6.28292C16.4888 6.31702 16.3999 6.37059 16.3245 6.44033C13.5866 8.66485 12.3683 11.7449 12.3683 13.6546C12.3715 14.3222 12.5669 14.9747 12.931 15.5342C13.2951 16.0938 13.8126 16.5367 14.4217 16.81C14.8332 17.0101 15.2851 17.1131 15.7427 17.1112C16.1352 17.1302 16.5275 17.0694 16.8958 16.9323C17.2641 16.7953 17.6007 16.5848 17.8853 16.3138C18.1698 16.0427 18.3964 15.7167 18.5511 15.3555C18.7059 14.9943 18.7857 14.6054 18.7857 14.2124C18.7857 13.8195 18.7059 13.4306 18.5511 13.0694C18.3964 12.7082 18.1698 12.3821 17.8853 12.1111C17.6007 11.8401 17.2641 11.6296 16.8958 11.4926C16.5275 11.3555 16.1352 11.2947 15.7427 11.3137V11.3274Z" fill="#0045A4"/>
</svg>
