<svg width="22" height="22" viewBox="0 0 22 22" fill="none" xmlns="http://www.w3.org/2000/svg">
<path d="M7.24782 10.114C6.79576 10.1155 6.3517 10.2334 5.95838 10.4562C6.51214 9.02284 7.43058 7.75892 8.62282 6.78953C8.69104 6.73335 8.74752 6.66429 8.78904 6.58629C8.83057 6.50828 8.85632 6.42286 8.86483 6.3349C8.87335 6.24694 8.86445 6.15817 8.83865 6.07365C8.81286 5.98913 8.77067 5.91052 8.71449 5.84231C8.65831 5.77409 8.58925 5.71761 8.51125 5.67609C8.43324 5.63456 8.34782 5.60881 8.25986 5.6003C8.17191 5.59178 8.08313 5.60068 7.99861 5.62648C7.91409 5.65227 7.83548 5.69446 7.76727 5.75064C5.32282 7.73675 4.23505 10.4868 4.23505 12.1918C4.23926 12.7946 4.41891 13.3832 4.75207 13.8856C5.08523 14.3881 5.55748 14.7827 6.11116 15.0212C6.46949 15.1948 6.8619 15.2866 7.26005 15.2901C7.61049 15.3071 7.96075 15.2528 8.28958 15.1304C8.61841 15.0081 8.91896 14.8202 9.17301 14.5782C9.42705 14.3362 9.62931 14.0451 9.7675 13.7226C9.9057 13.4001 9.97695 13.0529 9.97695 12.702C9.97695 12.3512 9.9057 12.004 9.7675 11.6815C9.62931 11.359 9.42705 11.0679 9.17301 10.8259C8.91896 10.5839 8.61841 10.396 8.28958 10.2736C7.96075 10.1513 7.61049 10.0969 7.26005 10.114H7.24782Z" fill="#0045A4"/>
<path d="M14.0556 10.1138C13.6035 10.1147 13.1593 10.2326 12.7661 10.456C13.3197 9.02413 14.2357 7.76064 15.4245 6.78932C15.4989 6.73569 15.5615 6.6674 15.6086 6.58865C15.6556 6.5099 15.686 6.42236 15.6979 6.33142C15.7099 6.24048 15.703 6.14806 15.6779 6.05984C15.6528 5.97163 15.6099 5.8895 15.5518 5.81849C15.4938 5.74748 15.4218 5.68911 15.3403 5.64696C15.2589 5.60481 15.1696 5.57978 15.0781 5.5734C14.9866 5.56703 14.8948 5.57944 14.8083 5.60989C14.7218 5.64033 14.6424 5.68816 14.575 5.75043C12.1306 7.73654 11.0428 10.4865 11.0428 12.1915C11.0457 12.7876 11.2201 13.3702 11.5452 13.8697C11.8703 14.3693 12.3324 14.7647 12.8761 15.0088C13.2436 15.1874 13.6471 15.2794 14.0556 15.2777C14.406 15.2947 14.7563 15.2404 15.0851 15.118C15.414 14.9956 15.7145 14.8077 15.9686 14.5657C16.2226 14.3237 16.4249 14.0327 16.5631 13.7102C16.7012 13.3877 16.7725 13.0405 16.7725 12.6896C16.7725 12.3387 16.7012 11.9915 16.5631 11.669C16.4249 11.3465 16.2226 11.0555 15.9686 10.8135C15.7145 10.5715 15.414 10.3836 15.0851 10.2612C14.7563 10.1388 14.406 10.0845 14.0556 10.1015V10.1138Z" fill="#0045A4"/>
</svg>
