<svg width="37" height="36" viewBox="0 0 37 36" fill="none" xmlns="http://www.w3.org/2000/svg">
<path d="M12.4879 16.5501C11.7482 16.5526 11.0215 16.7454 10.3779 17.1101C11.2841 14.7646 12.787 12.6964 14.7379 11.1101C14.8495 11.0181 14.942 10.9051 15.0099 10.7775C15.0779 10.6498 15.12 10.5101 15.1339 10.3661C15.1479 10.2222 15.1333 10.0769 15.0911 9.93864C15.0489 9.80033 14.9798 9.6717 14.8879 9.56007C14.796 9.44845 14.683 9.35602 14.5553 9.28807C14.4277 9.22013 14.2879 9.17798 14.144 9.16406C14.0001 9.15013 13.8548 9.16468 13.7165 9.2069C13.5782 9.24911 13.4495 9.31815 13.3379 9.41007C9.33792 12.6601 7.55792 17.1601 7.55792 19.9501C7.56481 20.9366 7.85879 21.8997 8.40396 22.7219C8.94913 23.5441 9.7219 24.1898 10.6279 24.5801C11.2143 24.8641 11.8564 25.0144 12.5079 25.0201C13.0814 25.0479 13.6545 24.9591 14.1926 24.7588C14.7307 24.5586 15.2225 24.2511 15.6382 23.8551C16.0539 23.4591 16.3849 22.9828 16.611 22.4551C16.8372 21.9274 16.9538 21.3592 16.9538 20.7851C16.9538 20.2109 16.8372 19.6428 16.611 19.1151C16.3849 18.5873 16.0539 18.111 15.6382 17.715C15.2225 17.319 14.7307 17.0116 14.1926 16.8113C13.6545 16.6111 13.0814 16.5222 12.5079 16.5501H12.4879Z" fill="#0045A4"/>
<path d="M23.6279 16.55C22.8881 16.5516 22.1612 16.7445 21.5179 17.11C22.4237 14.767 23.9227 12.6995 25.8679 11.11C25.9897 11.0223 26.0922 10.9105 26.1691 10.7816C26.2461 10.6528 26.2959 10.5095 26.3154 10.3607C26.3349 10.2119 26.3238 10.0607 26.2826 9.91633C26.2415 9.77198 26.1713 9.63758 26.0763 9.52139C25.9813 9.40519 25.8635 9.30967 25.7302 9.2407C25.5969 9.17173 25.4509 9.13077 25.3012 9.12034C25.1515 9.1099 25.0012 9.13022 24.8596 9.18004C24.718 9.22986 24.5881 9.30812 24.4779 9.41002C20.4779 12.66 18.6979 17.16 18.6979 19.95C18.7027 20.9253 18.9881 21.8787 19.5201 22.6962C20.052 23.5136 20.8081 24.1607 21.6979 24.56C22.2991 24.8524 22.9594 25.0029 23.6279 25C24.2014 25.0279 24.7745 24.939 25.3126 24.7388C25.8507 24.5385 26.3425 24.2311 26.7582 23.8351C27.174 23.4391 27.5049 22.9628 27.731 22.435C27.9572 21.9073 28.0738 21.3392 28.0738 20.765C28.0738 20.1909 27.9572 19.6227 27.731 19.095C27.5049 18.5673 27.174 18.091 26.7582 17.695C26.3425 17.299 25.8507 16.9915 25.3126 16.7913C24.7745 16.591 24.2014 16.5021 23.6279 16.53V16.55Z" fill="#0045A4"/>
</svg>
