<svg width="27" height="27" viewBox="0 0 27 27" fill="none" xmlns="http://www.w3.org/2000/svg">
<path d="M4.04999 8.0998C4.04999 7.02568 4.47668 5.99554 5.23621 5.23602C5.99573 4.4765 7.02586 4.0498 8.09999 4.0498H18.9C19.9741 4.0498 21.0042 4.4765 21.7638 5.23602C22.5233 5.99554 22.95 7.02568 22.95 8.0998V14.5231C22.5301 14.2417 22.0765 14.014 21.6 13.8454V9.4498H5.39999V18.8998C5.39999 19.6159 5.68445 20.3026 6.1908 20.809C6.69715 21.3153 7.3839 21.5998 8.09999 21.5998H13.8456C14.0157 22.0804 14.2438 22.534 14.5233 22.9498H8.09999C7.02586 22.9498 5.99573 22.5231 5.23621 21.7636C4.47668 21.0041 4.04999 19.9739 4.04999 18.8998V8.0998ZM20.3256 20.698C20.1782 20.7976 20.0126 20.8671 19.8383 20.9024C19.6639 20.9378 19.4843 20.9384 19.3098 20.9041C19.1352 20.8699 18.9692 20.8015 18.8211 20.7028C18.6731 20.6042 18.546 20.4773 18.4472 20.3293C18.3484 20.1814 18.2798 20.0155 18.2454 19.8409C18.2109 19.6664 18.2113 19.4868 18.2464 19.3125C18.2816 19.1381 18.3509 18.9724 18.4503 18.8249C18.5497 18.6774 18.6773 18.551 18.8257 18.453C19.1233 18.27 19.4801 18.2095 19.8213 18.2842C20.1625 18.3588 20.4614 18.5628 20.6554 18.8532C20.8494 19.1437 20.9233 19.498 20.8615 19.8417C20.7997 20.1855 20.6072 20.4919 20.3242 20.6967L20.3256 20.698ZM24.2311 18.8998H24.975C25.154 18.8998 25.3257 18.9709 25.4523 19.0975C25.5789 19.2241 25.65 19.3958 25.65 19.5748C25.65 19.7538 25.5789 19.9255 25.4523 20.0521C25.3257 20.1787 25.154 20.2498 24.975 20.2498H24.2311C24.0852 21.2538 23.6187 22.1838 22.9013 22.9012C22.1839 23.6185 21.254 24.085 20.25 24.231V24.9748C20.25 25.1538 20.1789 25.3255 20.0523 25.4521C19.9257 25.5787 19.754 25.6498 19.575 25.6498C19.396 25.6498 19.2243 25.5787 19.0977 25.4521C18.9711 25.3255 18.9 25.1538 18.9 24.9748V24.231C17.896 24.085 16.966 23.6185 16.2486 22.9012C15.5312 22.1838 15.0648 21.2538 14.9188 20.2498H14.175C13.996 20.2498 13.8243 20.1787 13.6977 20.0521C13.5711 19.9255 13.5 19.7538 13.5 19.5748C13.5 19.3958 13.5711 19.2241 13.6977 19.0975C13.8243 18.9709 13.996 18.8998 14.175 18.8998H14.9188C15.0648 17.8958 15.5312 16.9658 16.2486 16.2485C16.966 15.5311 17.896 15.0646 18.9 14.9187V14.1748C18.9 13.9958 18.9711 13.8241 19.0977 13.6975C19.2243 13.5709 19.396 13.4998 19.575 13.4998C19.754 13.4998 19.9257 13.5709 20.0523 13.6975C20.1789 13.8241 20.25 13.9958 20.25 14.1748V14.9187C21.254 15.0646 22.1839 15.5311 22.9013 16.2485C23.6187 16.9658 24.0852 17.8958 24.2311 18.8998V18.8998ZM19.9057 22.9336C20.3468 22.8902 20.775 22.7603 21.1659 22.5514C21.5568 22.3424 21.9027 22.0586 22.1839 21.716C22.4651 21.3734 22.676 20.9787 22.8047 20.5546C22.9334 20.1305 22.9772 19.6851 22.9338 19.2441C22.8904 18.803 22.7605 18.3748 22.5515 17.9839C22.3426 17.593 22.0587 17.2471 21.7161 16.9659C21.3735 16.6847 20.9789 16.4738 20.5548 16.3451C20.1306 16.2164 19.6853 16.1726 19.2442 16.216C18.3534 16.3037 17.534 16.7417 16.9661 17.4336C16.3982 18.1256 16.1285 19.0147 16.2162 19.9056C16.3039 20.7964 16.7419 21.6158 17.4338 22.1837C18.1258 22.7516 19.0149 23.0213 19.9057 22.9336Z" fill="#F8F8F8"/>
</svg>
