<svg width="27" height="27" viewBox="0 0 27 27" fill="none" xmlns="http://www.w3.org/2000/svg">
<path d="M4.05 8.09999C4.05 7.02586 4.4767 5.99573 5.23622 5.23621C5.99574 4.47668 7.02588 4.04999 8.1 4.04999H18.9C19.9741 4.04999 21.0043 4.47668 21.7638 5.23621C22.5233 5.99573 22.95 7.02586 22.95 8.09999V14.5233C22.5301 14.2419 22.0765 14.0142 21.6 13.8456V9.44999H5.4V18.9C5.4 19.6161 5.68447 20.3028 6.19081 20.8092C6.69716 21.3155 7.38392 21.6 8.1 21.6H13.8456C14.0157 22.0806 14.2439 22.5342 14.5233 22.95H8.1C7.02588 22.95 5.99574 22.5233 5.23622 21.7638C4.4767 21.0042 4.05 19.9741 4.05 18.9V8.09999ZM20.3256 20.6982C20.1782 20.7978 20.0126 20.8673 19.8383 20.9026C19.6639 20.938 19.4843 20.9386 19.3098 20.9043C19.1352 20.8701 18.9692 20.8016 18.8212 20.703C18.6731 20.6044 18.5461 20.4774 18.4472 20.3295C18.3484 20.1816 18.2798 20.0156 18.2454 19.8411C18.2109 19.6666 18.2113 19.487 18.2464 19.3127C18.2816 19.1383 18.3509 18.9726 18.4503 18.8251C18.5497 18.6776 18.6773 18.5512 18.8258 18.4531C19.1233 18.2702 19.4801 18.2097 19.8213 18.2844C20.1625 18.359 20.4615 18.563 20.6554 18.8534C20.8494 19.1438 20.9233 19.4981 20.8615 19.8419C20.7998 20.1856 20.6072 20.4921 20.3243 20.6968L20.3256 20.6982ZM24.2312 18.9H24.975C25.154 18.9 25.3257 18.9711 25.4523 19.0977C25.5789 19.2243 25.65 19.396 25.65 19.575C25.65 19.754 25.5789 19.9257 25.4523 20.0523C25.3257 20.1789 25.154 20.25 24.975 20.25H24.2312C24.0852 21.254 23.6187 22.1839 22.9014 22.9013C22.184 23.6187 21.254 24.0852 20.25 24.2311V24.975C20.25 25.154 20.1789 25.3257 20.0523 25.4523C19.9257 25.5789 19.754 25.65 19.575 25.65C19.396 25.65 19.2243 25.5789 19.0977 25.4523C18.9711 25.3257 18.9 25.154 18.9 24.975V24.2311C17.896 24.0852 16.966 23.6187 16.2487 22.9013C15.5313 22.1839 15.0648 21.254 14.9189 20.25H14.175C13.996 20.25 13.8243 20.1789 13.6977 20.0523C13.5711 19.9257 13.5 19.754 13.5 19.575C13.5 19.396 13.5711 19.2243 13.6977 19.0977C13.8243 18.9711 13.996 18.9 14.175 18.9H14.9189C15.0648 17.896 15.5313 16.966 16.2487 16.2486C16.966 15.5312 17.896 15.0648 18.9 14.9188V14.175C18.9 13.996 18.9711 13.8243 19.0977 13.6977C19.2243 13.5711 19.396 13.5 19.575 13.5C19.754 13.5 19.9257 13.5711 20.0523 13.6977C20.1789 13.8243 20.25 13.996 20.25 14.175V14.9188C21.254 15.0648 22.184 15.5312 22.9014 16.2486C23.6187 16.966 24.0852 17.896 24.2312 18.9V18.9ZM19.9058 22.9338C20.3468 22.8904 20.775 22.7605 21.1659 22.5515C21.5568 22.3426 21.9027 22.0587 22.1839 21.7161C22.4651 21.3735 22.676 20.9789 22.8047 20.5548C22.9334 20.1306 22.9772 19.6853 22.9338 19.2442C22.8904 18.8032 22.7605 18.3749 22.5516 17.9841C22.3426 17.5932 22.0588 17.2473 21.7162 16.9661C21.3736 16.6849 20.9789 16.474 20.5548 16.3453C20.1307 16.2166 19.6853 16.1728 19.2443 16.2162C18.3534 16.3039 17.534 16.7419 16.9661 17.4338C16.3982 18.1258 16.1285 19.0149 16.2162 19.9057C16.3039 20.7965 16.7419 21.616 17.4338 22.1839C18.1258 22.7518 19.0149 23.0215 19.9058 22.9338Z" fill="#F8F8F8"/>
</svg>
