<svg width="27" height="27" viewBox="0 0 27 27" fill="none" xmlns="http://www.w3.org/2000/svg">
<path d="M4.0498 8.10005C4.0498 7.02592 4.4765 5.99579 5.23602 5.23627C5.99554 4.47674 7.02568 4.05005 8.0998 4.05005H18.8998C19.9739 4.05005 21.0041 4.47674 21.7636 5.23627C22.5231 5.99579 22.9498 7.02592 22.9498 8.10005V14.5233C22.5299 14.242 22.0763 14.0143 21.5998 13.8456V9.45005H5.3998V18.9C5.3998 19.6161 5.68427 20.3029 6.19062 20.8092C6.69696 21.3156 7.38372 21.6 8.0998 21.6H13.8454C14.0155 22.0806 14.2437 22.5342 14.5231 22.95H8.0998C7.02568 22.95 5.99554 22.5234 5.23602 21.7638C4.4765 21.0043 4.0498 19.9742 4.0498 18.9V8.10005ZM20.3254 20.6982C20.178 20.7978 20.0124 20.8673 19.8381 20.9027C19.6637 20.9381 19.4841 20.9386 19.3096 20.9044C19.135 20.8701 18.969 20.8017 18.821 20.7031C18.6729 20.6044 18.5459 20.4775 18.4471 20.3296C18.3482 20.1817 18.2796 20.0157 18.2452 19.8412C18.2107 19.6667 18.2111 19.4871 18.2462 19.3127C18.2814 19.1383 18.3507 18.9726 18.4501 18.8251C18.5495 18.6776 18.6771 18.5512 18.8256 18.4532C19.1231 18.2703 19.4799 18.2098 19.8211 18.2844C20.1623 18.3591 20.4613 18.563 20.6552 18.8535C20.8492 19.1439 20.9231 19.4982 20.8613 19.842C20.7996 20.1857 20.607 20.4921 20.3241 20.6969L20.3254 20.6982ZM24.231 18.9H24.9748C25.1538 18.9 25.3255 18.9712 25.4521 19.0978C25.5787 19.2243 25.6498 19.396 25.6498 19.575C25.6498 19.7541 25.5787 19.9258 25.4521 20.0523C25.3255 20.1789 25.1538 20.25 24.9748 20.25H24.231C24.085 21.254 23.6185 22.184 22.9012 22.9014C22.1838 23.6188 21.2538 24.0852 20.2498 24.2312V24.975C20.2498 25.1541 20.1787 25.3258 20.0521 25.4523C19.9255 25.5789 19.7538 25.65 19.5748 25.65C19.3958 25.65 19.2241 25.5789 19.0975 25.4523C18.9709 25.3258 18.8998 25.1541 18.8998 24.975V24.2312C17.8958 24.0852 16.9658 23.6188 16.2485 22.9014C15.5311 22.184 15.0646 21.254 14.9187 20.25H14.1748C13.9958 20.25 13.8241 20.1789 13.6975 20.0523C13.5709 19.9258 13.4998 19.7541 13.4998 19.575C13.4998 19.396 13.5709 19.2243 13.6975 19.0978C13.8241 18.9712 13.9958 18.9 14.1748 18.9H14.9187C15.0646 17.8961 15.5311 16.9661 16.2485 16.2487C16.9658 15.5313 17.8958 15.0649 18.8998 14.9189V14.175C18.8998 13.996 18.9709 13.8243 19.0975 13.6978C19.2241 13.5712 19.3958 13.5 19.5748 13.5C19.7538 13.5 19.9255 13.5712 20.0521 13.6978C20.1787 13.8243 20.2498 13.996 20.2498 14.175V14.9189C21.2538 15.0649 22.1838 15.5313 22.9012 16.2487C23.6185 16.9661 24.085 17.8961 24.231 18.9V18.9ZM19.9056 22.9338C20.3466 22.8904 20.7748 22.7605 21.1657 22.5516C21.5566 22.3427 21.9025 22.0588 22.1837 21.7162C22.4649 21.3736 22.6758 20.979 22.8045 20.5548C22.9332 20.1307 22.977 19.6854 22.9336 19.2443C22.8902 18.8032 22.7603 18.375 22.5514 17.9841C22.3424 17.5932 22.0586 17.2473 21.716 16.9661C21.3734 16.685 20.9787 16.474 20.5546 16.3453C20.1305 16.2167 19.6851 16.1728 19.2441 16.2162C18.3532 16.304 17.5338 16.742 16.9659 17.4339C16.398 18.1258 16.1283 19.015 16.216 19.9058C16.3037 20.7966 16.7417 21.6161 17.4336 22.184C18.1256 22.7518 19.0147 23.0216 19.9056 22.9338Z" fill="#F8F8F8"/>
</svg>
