<svg width="202" height="61" viewBox="0 0 202 61" fill="none" xmlns="http://www.w3.org/2000/svg">
<g filter="url(#filter0_d_305_482)">
<rect x="4" width="194" height="53" rx="15" fill="#0045A4"/>
<path d="M55.1343 27.0229H52.3584V25.5654H55.1343C55.6177 25.5654 56.0083 25.4873 56.3062 25.3311C56.604 25.1748 56.8213 24.96 56.958 24.6865C57.0996 24.4082 57.1704 24.0908 57.1704 23.7344C57.1704 23.3975 57.0996 23.0825 56.958 22.7896C56.8213 22.4917 56.604 22.2524 56.3062 22.0718C56.0083 21.8911 55.6177 21.8008 55.1343 21.8008H52.9224V31H51.084V20.3359H55.1343C55.9595 20.3359 56.6602 20.4824 57.2363 20.7754C57.8174 21.0635 58.2593 21.4639 58.562 21.9766C58.8647 22.4844 59.0161 23.0654 59.0161 23.7197C59.0161 24.4082 58.8647 24.999 58.562 25.4922C58.2593 25.9854 57.8174 26.3638 57.2363 26.6274C56.6602 26.8911 55.9595 27.0229 55.1343 27.0229ZM62.2607 24.584V31H60.4956V23.0752H62.1802L62.2607 24.584ZM64.6851 23.0239L64.6704 24.6646C64.563 24.645 64.4458 24.6304 64.3188 24.6206C64.1968 24.6108 64.0747 24.606 63.9526 24.606C63.6499 24.606 63.3838 24.6499 63.1543 24.7378C62.9248 24.8208 62.7319 24.9429 62.5757 25.104C62.4243 25.2603 62.3071 25.4507 62.2241 25.6753C62.1411 25.8999 62.0923 26.1514 62.0776 26.4297L61.6748 26.459C61.6748 25.9609 61.7236 25.4995 61.8213 25.0747C61.9189 24.6499 62.0654 24.2764 62.2607 23.9541C62.4609 23.6318 62.71 23.3804 63.0078 23.1997C63.3105 23.019 63.6597 22.9287 64.0552 22.9287C64.1626 22.9287 64.2773 22.9385 64.3994 22.958C64.5264 22.9775 64.6216 22.9995 64.6851 23.0239ZM69.1382 31.1465C68.5522 31.1465 68.0225 31.0513 67.5488 30.8608C67.0801 30.6655 66.6797 30.3945 66.3477 30.0479C66.0205 29.7012 65.769 29.2935 65.5933 28.8247C65.4175 28.356 65.3296 27.8506 65.3296 27.3086V27.0156C65.3296 26.3955 65.4199 25.834 65.6006 25.3311C65.7812 24.8281 66.0327 24.3984 66.355 24.042C66.6772 23.6807 67.0581 23.4048 67.4976 23.2144C67.937 23.0239 68.4131 22.9287 68.9258 22.9287C69.4922 22.9287 69.9878 23.0239 70.4126 23.2144C70.8374 23.4048 71.189 23.6733 71.4673 24.02C71.7505 24.3618 71.9604 24.7695 72.0972 25.2432C72.2388 25.7168 72.3096 26.2393 72.3096 26.8105V27.5649H66.1865V26.2979H70.5664V26.1587C70.5566 25.8413 70.4932 25.5435 70.376 25.2651C70.2637 24.9868 70.0903 24.7622 69.856 24.5913C69.6216 24.4204 69.3091 24.335 68.9185 24.335C68.6255 24.335 68.3643 24.3984 68.1348 24.5254C67.9102 24.6475 67.7222 24.8257 67.5708 25.0601C67.4194 25.2944 67.3022 25.5776 67.2192 25.9097C67.1411 26.2368 67.1021 26.6055 67.1021 27.0156V27.3086C67.1021 27.6553 67.1484 27.9775 67.2412 28.2754C67.3389 28.5684 67.4805 28.8247 67.666 29.0444C67.8516 29.2642 68.0762 29.4375 68.3398 29.5645C68.6035 29.6865 68.9038 29.7476 69.2407 29.7476C69.6655 29.7476 70.0439 29.6621 70.376 29.4912C70.708 29.3203 70.9961 29.0786 71.2402 28.7661L72.1704 29.667C71.9995 29.916 71.7773 30.1553 71.5039 30.3848C71.2305 30.6094 70.896 30.7925 70.5005 30.9341C70.1099 31.0757 69.6558 31.1465 69.1382 31.1465ZM76.1621 29.6011L78.103 23.0752H79.9341L77.1802 31H76.0376L76.1621 29.6011ZM74.6753 23.0752L76.6528 29.6304L76.748 31H75.6055L72.8369 23.0752H74.6753ZM82.915 23.0752V31H81.1426V23.0752H82.915ZM81.0254 20.9951C81.0254 20.7266 81.1133 20.5044 81.2891 20.3286C81.4697 20.1479 81.7188 20.0576 82.0361 20.0576C82.3486 20.0576 82.5952 20.1479 82.7759 20.3286C82.9565 20.5044 83.0469 20.7266 83.0469 20.9951C83.0469 21.2588 82.9565 21.4785 82.7759 21.6543C82.5952 21.8301 82.3486 21.918 82.0361 21.918C81.7188 21.918 81.4697 21.8301 81.2891 21.6543C81.1133 21.4785 81.0254 21.2588 81.0254 20.9951ZM88.3423 31.1465C87.7563 31.1465 87.2266 31.0513 86.7529 30.8608C86.2842 30.6655 85.8838 30.3945 85.5518 30.0479C85.2246 29.7012 84.9731 29.2935 84.7974 28.8247C84.6216 28.356 84.5337 27.8506 84.5337 27.3086V27.0156C84.5337 26.3955 84.624 25.834 84.8047 25.3311C84.9854 24.8281 85.2368 24.3984 85.5591 24.042C85.8813 23.6807 86.2622 23.4048 86.7017 23.2144C87.1411 23.0239 87.6172 22.9287 88.1299 22.9287C88.6963 22.9287 89.1919 23.0239 89.6167 23.2144C90.0415 23.4048 90.3931 23.6733 90.6714 24.02C90.9546 24.3618 91.1646 24.7695 91.3013 25.2432C91.4429 25.7168 91.5137 26.2393 91.5137 26.8105V27.5649H85.3906V26.2979H89.7705V26.1587C89.7607 25.8413 89.6973 25.5435 89.5801 25.2651C89.4678 24.9868 89.2944 24.7622 89.0601 24.5913C88.8257 24.4204 88.5132 24.335 88.1226 24.335C87.8296 24.335 87.5684 24.3984 87.3389 24.5254C87.1143 24.6475 86.9263 24.8257 86.7749 25.0601C86.6235 25.2944 86.5063 25.5776 86.4233 25.9097C86.3452 26.2368 86.3062 26.6055 86.3062 27.0156V27.3086C86.3062 27.6553 86.3525 27.9775 86.4453 28.2754C86.543 28.5684 86.6846 28.8247 86.8701 29.0444C87.0557 29.2642 87.2803 29.4375 87.5439 29.5645C87.8076 29.6865 88.1079 29.7476 88.4448 29.7476C88.8696 29.7476 89.248 29.6621 89.5801 29.4912C89.9121 29.3203 90.2002 29.0786 90.4443 28.7661L91.3745 29.667C91.2036 29.916 90.9814 30.1553 90.708 30.3848C90.4346 30.6094 90.1001 30.7925 89.7046 30.9341C89.314 31.0757 88.8599 31.1465 88.3423 31.1465ZM95.0439 29.2422L96.875 23.0752H98.0029L97.6953 24.9209L95.8496 31H94.8389L95.0439 29.2422ZM93.9673 23.0752L95.3955 29.2715L95.5127 31H94.3848L92.2388 23.0752H93.9673ZM99.7168 29.1982L101.101 23.0752H102.822L100.684 31H99.5557L99.7168 29.1982ZM98.1934 23.0752L100.002 29.1689L100.229 31H99.2188L97.3511 24.9136L97.0435 23.0752H98.1934ZM110.059 30.1357L112.212 23.0752H114.102L110.923 32.2085C110.85 32.4038 110.754 32.6162 110.637 32.8457C110.52 33.0752 110.366 33.2925 110.176 33.4976C109.99 33.7075 109.758 33.876 109.48 34.0029C109.202 34.1348 108.865 34.2007 108.469 34.2007C108.313 34.2007 108.162 34.186 108.015 34.1567C107.874 34.1323 107.739 34.1055 107.612 34.0762L107.605 32.7285C107.654 32.7334 107.712 32.7383 107.781 32.7432C107.854 32.748 107.913 32.7505 107.957 32.7505C108.25 32.7505 108.494 32.7139 108.689 32.6406C108.884 32.5723 109.043 32.46 109.165 32.3037C109.292 32.1475 109.399 31.9375 109.487 31.6738L110.059 30.1357ZM108.843 23.0752L110.725 29.0078L111.04 30.8682L109.817 31.1831L106.938 23.0752H108.843ZM114.658 27.1255V26.957C114.658 26.3857 114.741 25.856 114.907 25.3677C115.073 24.8745 115.312 24.4473 115.625 24.0859C115.942 23.7197 116.328 23.4365 116.782 23.2363C117.241 23.0312 117.759 22.9287 118.335 22.9287C118.916 22.9287 119.434 23.0312 119.888 23.2363C120.347 23.4365 120.735 23.7197 121.052 24.0859C121.37 24.4473 121.611 24.8745 121.777 25.3677C121.943 25.856 122.026 26.3857 122.026 26.957V27.1255C122.026 27.6968 121.943 28.2266 121.777 28.7148C121.611 29.2031 121.37 29.6304 121.052 29.9966C120.735 30.3579 120.349 30.6411 119.895 30.8462C119.441 31.0464 118.926 31.1465 118.35 31.1465C117.769 31.1465 117.249 31.0464 116.79 30.8462C116.335 30.6411 115.95 30.3579 115.632 29.9966C115.315 29.6304 115.073 29.2031 114.907 28.7148C114.741 28.2266 114.658 27.6968 114.658 27.1255ZM116.423 26.957V27.1255C116.423 27.4819 116.46 27.8188 116.533 28.1362C116.606 28.4536 116.721 28.7319 116.877 28.9712C117.034 29.2104 117.234 29.3984 117.478 29.5352C117.722 29.6719 118.013 29.7402 118.35 29.7402C118.677 29.7402 118.96 29.6719 119.199 29.5352C119.443 29.3984 119.644 29.2104 119.8 28.9712C119.956 28.7319 120.071 28.4536 120.144 28.1362C120.222 27.8188 120.261 27.4819 120.261 27.1255V26.957C120.261 26.6055 120.222 26.2734 120.144 25.9609C120.071 25.6436 119.954 25.3628 119.792 25.1187C119.636 24.8745 119.436 24.6841 119.192 24.5474C118.953 24.4058 118.667 24.335 118.335 24.335C118.003 24.335 117.715 24.4058 117.471 24.5474C117.231 24.6841 117.034 24.8745 116.877 25.1187C116.721 25.3628 116.606 25.6436 116.533 25.9609C116.46 26.2734 116.423 26.6055 116.423 26.957ZM128.274 29.1323V23.0752H130.046V31H128.376L128.274 29.1323ZM128.523 27.4844L129.116 27.4697C129.116 28.002 129.058 28.4927 128.94 28.9419C128.823 29.3862 128.643 29.7744 128.398 30.1064C128.154 30.4336 127.842 30.6899 127.461 30.8755C127.08 31.0562 126.624 31.1465 126.091 31.1465C125.706 31.1465 125.352 31.0903 125.029 30.978C124.707 30.8657 124.429 30.6924 124.194 30.458C123.965 30.2236 123.787 29.9185 123.66 29.5425C123.533 29.1665 123.469 28.7173 123.469 28.1948V23.0752H125.234V28.2095C125.234 28.4976 125.269 28.7393 125.337 28.9346C125.405 29.125 125.498 29.2788 125.615 29.396C125.732 29.5132 125.869 29.5962 126.025 29.645C126.182 29.6938 126.348 29.7183 126.523 29.7183C127.026 29.7183 127.422 29.6206 127.71 29.4253C128.003 29.2251 128.21 28.9565 128.333 28.6196C128.459 28.2827 128.523 27.9043 128.523 27.4844ZM140.059 29.4106V25.6313C140.059 25.3481 140.007 25.104 139.905 24.8989C139.802 24.6938 139.646 24.5352 139.436 24.4229C139.231 24.3105 138.972 24.2544 138.66 24.2544C138.372 24.2544 138.123 24.3032 137.913 24.4009C137.703 24.4985 137.539 24.6304 137.422 24.7964C137.305 24.9624 137.246 25.1504 137.246 25.3604H135.488C135.488 25.0479 135.564 24.7451 135.715 24.4521C135.867 24.1592 136.086 23.8979 136.375 23.6685C136.663 23.439 137.007 23.2583 137.407 23.1265C137.808 22.9946 138.257 22.9287 138.755 22.9287C139.351 22.9287 139.878 23.0288 140.337 23.229C140.801 23.4292 141.165 23.7319 141.428 24.1372C141.697 24.5376 141.831 25.0405 141.831 25.646V29.1689C141.831 29.5303 141.855 29.855 141.904 30.1431C141.958 30.4263 142.034 30.6729 142.131 30.8828V31H140.322C140.239 30.8096 140.173 30.5679 140.125 30.2749C140.081 29.9771 140.059 29.689 140.059 29.4106ZM140.315 26.1807L140.33 27.272H139.062C138.735 27.272 138.447 27.3037 138.198 27.3672C137.949 27.4258 137.742 27.5137 137.576 27.6309C137.41 27.748 137.285 27.8896 137.202 28.0557C137.119 28.2217 137.078 28.4097 137.078 28.6196C137.078 28.8296 137.126 29.0225 137.224 29.1982C137.322 29.3691 137.463 29.5034 137.649 29.6011C137.839 29.6987 138.069 29.7476 138.337 29.7476C138.699 29.7476 139.014 29.6743 139.282 29.5278C139.556 29.3765 139.771 29.1934 139.927 28.9785C140.083 28.7588 140.166 28.5513 140.176 28.356L140.747 29.1396C140.688 29.3398 140.588 29.5547 140.447 29.7842C140.305 30.0137 140.12 30.2334 139.89 30.4434C139.666 30.6484 139.395 30.8169 139.077 30.9487C138.765 31.0806 138.403 31.1465 137.993 31.1465C137.476 31.1465 137.014 31.0439 136.609 30.8389C136.204 30.6289 135.886 30.3481 135.657 29.9966C135.427 29.6401 135.312 29.2373 135.312 28.7881C135.312 28.3682 135.391 27.9971 135.547 27.6748C135.708 27.3477 135.942 27.0742 136.25 26.8545C136.562 26.6348 136.943 26.4688 137.393 26.3564C137.842 26.2393 138.354 26.1807 138.931 26.1807H140.315ZM148.511 29.3594V19.75H150.283V31H148.679L148.511 29.3594ZM143.354 27.1255V26.9717C143.354 26.3711 143.425 25.8242 143.567 25.3311C143.708 24.833 143.914 24.4058 144.182 24.0493C144.451 23.688 144.778 23.4121 145.164 23.2217C145.549 23.0264 145.984 22.9287 146.467 22.9287C146.946 22.9287 147.366 23.0215 147.727 23.207C148.088 23.3926 148.396 23.6587 148.65 24.0054C148.904 24.3472 149.106 24.7573 149.258 25.2358C149.409 25.7095 149.517 26.2368 149.58 26.8179V27.3086C149.517 27.875 149.409 28.3926 149.258 28.8613C149.106 29.3301 148.904 29.7354 148.65 30.0771C148.396 30.4189 148.086 30.6826 147.72 30.8682C147.358 31.0537 146.936 31.1465 146.453 31.1465C145.974 31.1465 145.542 31.0464 145.156 30.8462C144.775 30.646 144.451 30.3652 144.182 30.0039C143.914 29.6426 143.708 29.2178 143.567 28.7295C143.425 28.2363 143.354 27.7017 143.354 27.1255ZM145.12 26.9717V27.1255C145.12 27.4868 145.151 27.8237 145.215 28.1362C145.283 28.4487 145.388 28.7246 145.53 28.9639C145.671 29.1982 145.854 29.3838 146.079 29.5205C146.309 29.6523 146.582 29.7183 146.899 29.7183C147.3 29.7183 147.629 29.6304 147.888 29.4546C148.147 29.2788 148.35 29.042 148.496 28.7441C148.647 28.4414 148.75 28.1045 148.804 27.7334V26.4077C148.774 26.1196 148.713 25.8511 148.621 25.6021C148.533 25.353 148.413 25.1357 148.262 24.9502C148.11 24.7598 147.922 24.6133 147.698 24.5107C147.478 24.4033 147.217 24.3496 146.914 24.3496C146.592 24.3496 146.318 24.418 146.094 24.5547C145.869 24.6914 145.684 24.8794 145.537 25.1187C145.396 25.3579 145.291 25.6362 145.222 25.9536C145.154 26.271 145.12 26.6104 145.12 26.9717Z" fill="white"/>
</g>
<defs>
<filter id="filter0_d_305_482" x="0" y="0" width="202" height="61" filterUnits="userSpaceOnUse" color-interpolation-filters="sRGB">
<feFlood flood-opacity="0" result="BackgroundImageFix"/>
<feColorMatrix in="SourceAlpha" type="matrix" values="0 0 0 0 0 0 0 0 0 0 0 0 0 0 0 0 0 0 127 0" result="hardAlpha"/>
<feOffset dy="4"/>
<feGaussianBlur stdDeviation="2"/>
<feComposite in2="hardAlpha" operator="out"/>
<feColorMatrix type="matrix" values="0 0 0 0 0 0 0 0 0 0 0 0 0 0 0 0 0 0 0.25 0"/>
<feBlend mode="normal" in2="BackgroundImageFix" result="effect1_dropShadow_305_482"/>
<feBlend mode="normal" in="SourceGraphic" in2="effect1_dropShadow_305_482" result="shape"/>
</filter>
</defs>
</svg>
