<svg width="245" height="61" viewBox="0 0 245 61" fill="none" xmlns="http://www.w3.org/2000/svg">
<g filter="url(#filter0_d_142_349)">
<rect x="4" width="237" height="53" rx="15" fill="#0045A4"/>
<path d="M38.4414 18.7812H40.6289L44.7402 29.748L48.8418 18.7812H51.0293L45.5996 33H43.8613L38.4414 18.7812ZM37.4453 18.7812H39.5254L39.8867 28.2734V33H37.4453V18.7812ZM49.9453 18.7812H52.0352V33H49.584V28.2734L49.9453 18.7812ZM60.6582 20.6758L56.4102 33H53.8418L59.1934 18.7812H60.834L60.6582 20.6758ZM64.2129 33L59.9551 20.6758L59.7695 18.7812H61.4199L66.791 33H64.2129ZM64.0078 27.7266V29.6699H56.2734V27.7266H64.0078ZM70.834 18.7812V33H68.3828V18.7812H70.834ZM79.3789 18.7812L73.6172 25.627L70.3359 29.1035L69.9062 26.6719L72.25 23.7812L76.3906 18.7812H79.3789ZM76.7422 33L72.0645 26.2617L73.7539 24.5918L79.6523 33H76.7422ZM90.3262 31.0566V33H82.7773V31.0566H90.3262ZM83.4707 18.7812V33H81.0195V18.7812H83.4707ZM89.3398 24.7188V26.6328H82.7773V24.7188H89.3398ZM90.2773 18.7812V20.7344H82.7773V18.7812H90.2773ZM98.3047 18.7812H100.492L104.604 29.748L108.705 18.7812H110.893L105.463 33H103.725L98.3047 18.7812ZM97.3086 18.7812H99.3887L99.75 28.2734V33H97.3086V18.7812ZM109.809 18.7812H111.898V33H109.447V28.2734L109.809 18.7812ZM124.115 31.0566V33H116.566V31.0566H124.115ZM117.26 18.7812V33H114.809V18.7812H117.26ZM123.129 24.7188V26.6328H116.566V24.7188H123.129ZM124.066 18.7812V20.7344H116.566V18.7812H124.066ZM133.549 18.7812V33H131.098V18.7812H133.549ZM139.35 25.002V26.9453H132.924V25.002H139.35ZM140.16 18.7812V20.7344H132.924V18.7812H140.16ZM145.912 20.6758L141.664 33H139.096L144.447 18.7812H146.088L145.912 20.6758ZM149.467 33L145.209 20.6758L145.023 18.7812H146.674L152.045 33H149.467ZM149.262 27.7266V29.6699H141.527V27.7266H149.262ZM154.633 18.7812H156.82L160.932 29.748L165.033 18.7812H167.221L161.791 33H160.053L154.633 18.7812ZM153.637 18.7812H155.717L156.078 28.2734V33H153.637V18.7812ZM166.137 18.7812H168.227V33H165.775V28.2734L166.137 18.7812ZM182.475 25.5V26.2812C182.475 27.3555 182.335 28.319 182.055 29.1719C181.775 30.0247 181.374 30.7507 180.854 31.3496C180.339 31.9486 179.721 32.4076 178.998 32.7266C178.275 33.0391 177.475 33.1953 176.596 33.1953C175.723 33.1953 174.926 33.0391 174.203 32.7266C173.487 32.4076 172.865 31.9486 172.338 31.3496C171.811 30.7507 171.4 30.0247 171.107 29.1719C170.821 28.319 170.678 27.3555 170.678 26.2812V25.5C170.678 24.4258 170.821 23.4655 171.107 22.6191C171.394 21.7663 171.798 21.0404 172.318 20.4414C172.846 19.8359 173.467 19.377 174.184 19.0645C174.906 18.7454 175.704 18.5859 176.576 18.5859C177.455 18.5859 178.256 18.7454 178.979 19.0645C179.701 19.377 180.323 19.8359 180.844 20.4414C181.365 21.0404 181.765 21.7663 182.045 22.6191C182.331 23.4655 182.475 24.4258 182.475 25.5ZM180.023 26.2812V25.4805C180.023 24.6862 179.945 23.9863 179.789 23.3809C179.639 22.7689 179.415 22.2578 179.115 21.8477C178.822 21.431 178.461 21.1185 178.031 20.9102C177.602 20.6953 177.117 20.5879 176.576 20.5879C176.036 20.5879 175.554 20.6953 175.131 20.9102C174.708 21.1185 174.346 21.431 174.047 21.8477C173.754 22.2578 173.529 22.7689 173.373 23.3809C173.217 23.9863 173.139 24.6862 173.139 25.4805V26.2812C173.139 27.0755 173.217 27.7786 173.373 28.3906C173.529 29.0026 173.757 29.5202 174.057 29.9434C174.363 30.36 174.727 30.6758 175.15 30.8906C175.574 31.099 176.055 31.2031 176.596 31.2031C177.143 31.2031 177.628 31.099 178.051 30.8906C178.474 30.6758 178.832 30.36 179.125 29.9434C179.418 29.5202 179.639 29.0026 179.789 28.3906C179.945 27.7786 180.023 27.0755 180.023 26.2812ZM192.904 18.7812H195.346V28.2832C195.346 29.3639 195.111 30.2689 194.643 30.998C194.174 31.7272 193.536 32.2773 192.729 32.6484C191.928 33.013 191.033 33.1953 190.043 33.1953C189.021 33.1953 188.109 33.013 187.309 32.6484C186.508 32.2773 185.876 31.7272 185.414 30.998C184.958 30.2689 184.73 29.3639 184.73 28.2832V18.7812H187.172V28.2832C187.172 28.9668 187.289 29.5299 187.523 29.9727C187.758 30.4089 188.09 30.7311 188.52 30.9395C188.949 31.1478 189.457 31.252 190.043 31.252C190.629 31.252 191.133 31.1478 191.557 30.9395C191.986 30.7311 192.318 30.4089 192.553 29.9727C192.787 29.5299 192.904 28.9668 192.904 28.2832V18.7812ZM205.492 29.3379C205.492 29.0449 205.447 28.7845 205.355 28.5566C205.271 28.3288 205.118 28.1204 204.896 27.9316C204.675 27.7428 204.363 27.5605 203.959 27.3848C203.562 27.2025 203.054 27.0169 202.436 26.8281C201.758 26.6198 201.133 26.3887 200.561 26.1348C199.994 25.8743 199.499 25.5749 199.076 25.2363C198.653 24.8913 198.324 24.4974 198.09 24.0547C197.855 23.6055 197.738 23.0879 197.738 22.502C197.738 21.9225 197.859 21.3952 198.1 20.9199C198.347 20.4447 198.695 20.0345 199.145 19.6895C199.6 19.3379 200.137 19.0677 200.756 18.8789C201.374 18.6836 202.058 18.5859 202.807 18.5859C203.861 18.5859 204.77 18.7812 205.531 19.1719C206.299 19.5625 206.889 20.0866 207.299 20.7441C207.715 21.4017 207.924 22.1276 207.924 22.9219H205.492C205.492 22.4531 205.391 22.0397 205.189 21.6816C204.994 21.3171 204.695 21.0306 204.291 20.8223C203.894 20.6139 203.389 20.5098 202.777 20.5098C202.198 20.5098 201.716 20.5977 201.332 20.7734C200.948 20.9492 200.661 21.1868 200.473 21.4863C200.284 21.7858 200.189 22.1243 200.189 22.502C200.189 22.7689 200.251 23.013 200.375 23.2344C200.499 23.4492 200.688 23.651 200.941 23.8398C201.195 24.0221 201.514 24.1947 201.898 24.3574C202.283 24.5202 202.735 24.6764 203.256 24.8262C204.044 25.0605 204.73 25.321 205.316 25.6074C205.902 25.8874 206.391 26.2064 206.781 26.5645C207.172 26.9225 207.465 27.3294 207.66 27.7852C207.855 28.2344 207.953 28.7454 207.953 29.3184C207.953 29.9173 207.833 30.4577 207.592 30.9395C207.351 31.4147 207.006 31.8216 206.557 32.1602C206.114 32.4922 205.58 32.7493 204.955 32.9316C204.337 33.1074 203.646 33.1953 202.885 33.1953C202.201 33.1953 201.527 33.1042 200.863 32.9219C200.206 32.7396 199.607 32.4629 199.066 32.0918C198.526 31.7142 198.096 31.2454 197.777 30.6855C197.458 30.1191 197.299 29.4583 197.299 28.7031H199.75C199.75 29.1654 199.828 29.5592 199.984 29.8848C200.147 30.2103 200.372 30.4772 200.658 30.6855C200.945 30.8874 201.277 31.0371 201.654 31.1348C202.038 31.2324 202.449 31.2812 202.885 31.2812C203.458 31.2812 203.936 31.1999 204.32 31.0371C204.711 30.8743 205.004 30.6465 205.199 30.3535C205.395 30.0605 205.492 29.722 205.492 29.3379Z" fill="white"/>
</g>
<defs>
<filter id="filter0_d_142_349" x="0" y="0" width="245" height="61" filterUnits="userSpaceOnUse" color-interpolation-filters="sRGB">
<feFlood flood-opacity="0" result="BackgroundImageFix"/>
<feColorMatrix in="SourceAlpha" type="matrix" values="0 0 0 0 0 0 0 0 0 0 0 0 0 0 0 0 0 0 127 0" result="hardAlpha"/>
<feOffset dy="4"/>
<feGaussianBlur stdDeviation="2"/>
<feComposite in2="hardAlpha" operator="out"/>
<feColorMatrix type="matrix" values="0 0 0 0 0 0 0 0 0 0 0 0 0 0 0 0 0 0 0.25 0"/>
<feBlend mode="normal" in2="BackgroundImageFix" result="effect1_dropShadow_142_349"/>
<feBlend mode="normal" in="SourceGraphic" in2="effect1_dropShadow_142_349" result="shape"/>
</filter>
</defs>
</svg>
