<svg width="17" height="29" viewBox="0 0 17 29" fill="none" xmlns="http://www.w3.org/2000/svg">
<path d="M12.1665 5.08154H15.945C16.2927 5.08154 16.5748 4.81833 16.5748 4.49402V0.968872C16.5748 0.644558 16.2927 0.381348 15.945 0.381348H12.1665C8.34768 0.381348 5.23921 3.28019 5.23921 6.84411V10.9568H0.830927C0.483302 10.9568 0.201172 11.22 0.201172 11.5443V15.0695C0.201172 15.3938 0.483302 15.657 0.830927 15.657H5.23921V27.995C5.23921 28.3193 5.52134 28.5825 5.86897 28.5825H9.6475C9.99512 28.5825 10.2773 28.3193 10.2773 27.995V15.657H14.6855C14.9563 15.657 15.1969 15.4948 15.2838 15.2551L16.5433 11.73C16.6075 11.5514 16.5748 11.3539 16.4564 11.2C16.3368 11.0473 16.1478 10.9568 15.945 10.9568H10.2773V6.84411C10.2773 5.87235 11.1249 5.08154 12.1665 5.08154Z" fill="black"/>
</svg>
