<svg width="10" height="17" viewBox="0 0 10 17" fill="none" xmlns="http://www.w3.org/2000/svg">
<path d="M7.30731 2.83333H9.61489C9.82718 2.83333 9.99948 2.67467 9.99948 2.47917V0.354167C9.99948 0.158667 9.82718 0 9.61489 0H7.30731C4.97513 0 3.07676 1.74746 3.07676 3.89583V6.375H0.384596C0.172299 6.375 0 6.53367 0 6.72917V8.85417C0 9.04967 0.172299 9.20833 0.384596 9.20833H3.07676V16.6458C3.07676 16.8413 3.24906 17 3.46136 17H5.76893C5.98123 17 6.15353 16.8413 6.15353 16.6458V9.20833H8.8457C9.01107 9.20833 9.15799 9.11058 9.21106 8.96608L9.98025 6.84108C10.0195 6.73342 9.99948 6.61442 9.92718 6.52162C9.85411 6.42954 9.73873 6.375 9.61489 6.375H6.15353V3.89583C6.15353 3.31004 6.67119 2.83333 7.30731 2.83333Z" fill="black"/>
</svg>
