<svg width="17" height="29" viewBox="0 0 17 29" fill="none" xmlns="http://www.w3.org/2000/svg">
<path d="M12.1668 5.08154H15.9453C16.2929 5.08154 16.575 4.81833 16.575 4.49402V0.968872C16.575 0.644558 16.2929 0.381348 15.9453 0.381348H12.1668C8.34793 0.381348 5.23946 3.28019 5.23946 6.84411V10.9568H0.831171C0.483546 10.9568 0.201416 11.22 0.201416 11.5443V15.0695C0.201416 15.3938 0.483546 15.657 0.831171 15.657H5.23946V27.995C5.23946 28.3193 5.52159 28.5825 5.86921 28.5825H9.64774C9.99536 28.5825 10.2775 28.3193 10.2775 27.995V15.657H14.6858C14.9566 15.657 15.1971 15.4948 15.284 15.2551L16.5436 11.73C16.6078 11.5514 16.575 11.3539 16.4567 11.2C16.337 11.0473 16.1481 10.9568 15.9453 10.9568H10.2775V6.84411C10.2775 5.87235 11.1251 5.08154 12.1668 5.08154Z" fill="black"/>
</svg>
