<svg width="28" height="28" viewBox="0 0 28 28" fill="none" xmlns="http://www.w3.org/2000/svg">
<path d="M3.52409 7.28309C5.44895 7.28309 7.00936 5.73819 7.00936 3.83246C7.00936 1.92673 5.44895 0.381836 3.52409 0.381836C1.59923 0.381836 0.0388184 1.92673 0.0388184 3.83246C0.0388184 5.73819 1.59923 7.28309 3.52409 7.28309Z" fill="black"/>
<path d="M6.42824 9.58789H0.619453C0.298808 9.58789 0.0385742 9.84554 0.0385742 10.163V27.4161C0.0385742 27.7336 0.298808 27.9912 0.619453 27.9912H6.42824C6.74888 27.9912 7.00912 27.7336 7.00912 27.4161V10.163C7.00912 9.84554 6.74888 9.58789 6.42824 9.58789Z" fill="black"/>
<path d="M23.7385 8.63165C21.2558 7.78969 18.1504 8.52928 16.2881 9.85547C16.2242 9.60817 15.9965 9.42414 15.7258 9.42414H9.91706C9.59642 9.42414 9.33618 9.68179 9.33618 9.99925V27.2524C9.33618 27.5698 9.59642 27.8275 9.91706 27.8275H15.7258C16.0465 27.8275 16.3067 27.5698 16.3067 27.2524V14.8531C17.2454 14.0526 18.4548 13.7972 19.4446 14.2136C20.4042 14.615 20.9538 15.595 20.9538 16.9005V27.2524C20.9538 27.5698 21.214 27.8275 21.5346 27.8275H27.3434C27.6641 27.8275 27.9243 27.5698 27.9243 27.2524V15.7422C27.8581 11.016 25.6124 9.26656 23.7385 8.63165Z" fill="black"/>
</svg>
