<svg width="17" height="17" viewBox="0 0 17 17" fill="none" xmlns="http://www.w3.org/2000/svg">
<path d="M2.1077 4.30029C3.22786 4.30029 4.13592 3.40126 4.13592 2.29224C4.13592 1.18322 3.22786 0.28418 2.1077 0.28418C0.987547 0.28418 0.079483 1.18322 0.079483 2.29224C0.079483 3.40126 0.987547 4.30029 2.1077 4.30029Z" fill="black"/>
<path d="M3.79775 5.6416H0.417382C0.230786 5.6416 0.0793457 5.79154 0.0793457 5.97628V16.0166C0.0793457 16.2013 0.230786 16.3512 0.417382 16.3512H3.79775C3.98434 16.3512 4.13578 16.2013 4.13578 16.0166V5.97628C4.13578 5.79154 3.98434 5.6416 3.79775 5.6416Z" fill="black"/>
<path d="M13.8713 5.08516C12.4265 4.5952 10.6194 5.02559 9.53561 5.79735C9.49843 5.65344 9.36592 5.54634 9.20839 5.54634H5.82803C5.64143 5.54634 5.48999 5.69628 5.48999 5.88102V15.9213C5.48999 16.106 5.64143 16.256 5.82803 16.256H9.20839C9.39499 16.256 9.54643 16.106 9.54643 15.9213V8.70569C10.0927 8.23982 10.7965 8.09122 11.3725 8.33353C11.9309 8.56713 12.2507 9.13742 12.2507 9.89713V15.9213C12.2507 16.106 12.4022 16.256 12.5888 16.256H15.9691C16.1557 16.256 16.3072 16.106 16.3072 15.9213V9.2231C16.2686 6.47273 14.9618 5.45464 13.8713 5.08516Z" fill="black"/>
</svg>
