<svg width="28" height="28" viewBox="0 0 28 28" fill="none" xmlns="http://www.w3.org/2000/svg">
<path d="M3.52433 7.28309C5.4492 7.28309 7.00961 5.73819 7.00961 3.83246C7.00961 1.92673 5.4492 0.381836 3.52433 0.381836C1.59947 0.381836 0.0390625 1.92673 0.0390625 3.83246C0.0390625 5.73819 1.59947 7.28309 3.52433 7.28309Z" fill="black"/>
<path d="M6.42824 9.58789H0.619453C0.298808 9.58789 0.0385742 9.84554 0.0385742 10.163V27.4161C0.0385742 27.7336 0.298808 27.9912 0.619453 27.9912H6.42824C6.74888 27.9912 7.00912 27.7336 7.00912 27.4161V10.163C7.00912 9.84554 6.74888 9.58789 6.42824 9.58789Z" fill="black"/>
<path d="M23.7382 8.63165C21.2556 7.78969 18.1502 8.52928 16.2879 9.85547C16.224 9.60817 15.9963 9.42414 15.7256 9.42414H9.91682C9.59617 9.42414 9.33594 9.68179 9.33594 9.99925V27.2524C9.33594 27.5698 9.59617 27.8275 9.91682 27.8275H15.7256C16.0463 27.8275 16.3065 27.5698 16.3065 27.2524V14.8531C17.2452 14.0526 18.4546 13.7972 19.4444 14.2136C20.404 14.615 20.9535 15.595 20.9535 16.9005V27.2524C20.9535 27.5698 21.2137 27.8275 21.5344 27.8275H27.3432C27.6638 27.8275 27.9241 27.5698 27.9241 27.2524V15.7422C27.8578 11.016 25.6122 9.26656 23.7382 8.63165Z" fill="black"/>
</svg>
