<svg width="28" height="28" viewBox="0 0 28 28" fill="none" xmlns="http://www.w3.org/2000/svg">
<path d="M3.52427 7.28309C5.44914 7.28309 7.00954 5.73819 7.00954 3.83246C7.00954 1.92673 5.44914 0.381836 3.52427 0.381836C1.59941 0.381836 0.0390015 1.92673 0.0390015 3.83246C0.0390015 5.73819 1.59941 7.28309 3.52427 7.28309Z" fill="black"/>
<path d="M6.42836 9.58789H0.619575C0.29893 9.58789 0.0386963 9.84554 0.0386963 10.163V27.4161C0.0386963 27.7336 0.29893 27.9912 0.619575 27.9912H6.42836C6.74901 27.9912 7.00924 27.7336 7.00924 27.4161V10.163C7.00924 9.84554 6.74901 9.58789 6.42836 9.58789Z" fill="black"/>
<path d="M23.7386 8.63171C21.2559 7.78976 18.1506 8.52934 16.2883 9.85553C16.2244 9.60824 15.9967 9.4242 15.726 9.4242H9.91718C9.59654 9.4242 9.3363 9.68185 9.3363 9.99931V27.2524C9.3363 27.5699 9.59654 27.8275 9.91718 27.8275H15.726C16.0466 27.8275 16.3069 27.5699 16.3069 27.2524V14.8532C17.2456 14.0526 18.4549 13.7973 19.4448 14.2137C20.4044 14.6151 20.9539 15.5951 20.9539 16.9006V27.2524C20.9539 27.5699 21.2141 27.8275 21.5348 27.8275H27.3435C27.6642 27.8275 27.9244 27.5699 27.9244 27.2524V15.7423C27.8582 11.0161 25.6125 9.26662 23.7386 8.63171Z" fill="black"/>
</svg>
