<svg width="28" height="28" viewBox="0 0 28 28" fill="none" xmlns="http://www.w3.org/2000/svg">
<path d="M3.52427 7.28309C5.44914 7.28309 7.00954 5.73819 7.00954 3.83246C7.00954 1.92673 5.44914 0.381836 3.52427 0.381836C1.59941 0.381836 0.0390015 1.92673 0.0390015 3.83246C0.0390015 5.73819 1.59941 7.28309 3.52427 7.28309Z" fill="black"/>
<path d="M6.42836 9.58789H0.619575C0.29893 9.58789 0.0386963 9.84554 0.0386963 10.163V27.4161C0.0386963 27.7336 0.29893 27.9912 0.619575 27.9912H6.42836C6.74901 27.9912 7.00924 27.7336 7.00924 27.4161V10.163C7.00924 9.84554 6.74901 9.58789 6.42836 9.58789Z" fill="black"/>
<path d="M23.7386 8.63165C21.2559 7.78969 18.1506 8.52928 16.2883 9.85547C16.2244 9.60817 15.9967 9.42414 15.726 9.42414H9.91718C9.59654 9.42414 9.3363 9.68179 9.3363 9.99925V27.2524C9.3363 27.5698 9.59654 27.8275 9.91718 27.8275H15.726C16.0466 27.8275 16.3069 27.5698 16.3069 27.2524V14.8531C17.2456 14.0526 18.4549 13.7972 19.4448 14.2136C20.4044 14.615 20.9539 15.595 20.9539 16.9005V27.2524C20.9539 27.5698 21.2141 27.8275 21.5348 27.8275H27.3435C27.6642 27.8275 27.9244 27.5698 27.9244 27.2524V15.7422C27.8582 11.016 25.6125 9.26656 23.7386 8.63165Z" fill="black"/>
</svg>
