<svg width="17" height="14" viewBox="0 0 17 14" fill="none" xmlns="http://www.w3.org/2000/svg">
<path d="M16.9035 1.70529C16.7911 1.58153 16.61 1.5504 16.4615 1.62674C16.3691 1.67417 16.1954 1.73642 15.9892 1.79793C16.2493 1.4511 16.4585 1.06277 16.5509 0.713713C16.5908 0.563271 16.5324 0.404678 16.4053 0.315006C16.2782 0.226075 16.1089 0.226075 15.9818 0.315006C15.7815 0.455072 14.8147 0.876012 14.2034 1.01237C12.822 -0.200794 11.2144 -0.32678 9.54329 0.651461C8.18479 1.44665 7.88914 3.06371 7.94679 4.04937C4.83731 3.74922 2.9045 2.10252 1.81652 0.739651C1.74039 0.64405 1.6177 0.593656 1.50239 0.601067C1.38118 0.60996 1.27179 0.677399 1.2097 0.781893C0.695272 1.65268 0.552622 2.61535 0.798749 3.56617C0.933269 4.08494 1.16831 4.54219 1.44105 4.91274C1.31022 4.84826 1.18383 4.76748 1.06483 4.67114C0.955443 4.58073 0.802445 4.56368 0.673098 4.62371C0.544491 4.68522 0.462449 4.81565 0.462449 4.95868C0.462449 6.59131 1.48096 7.68071 2.43221 8.24987C2.27847 8.23134 2.11808 8.19725 1.95621 8.1476C1.81726 8.10536 1.66648 8.1476 1.57039 8.25728C1.47431 8.36622 1.45139 8.52185 1.51126 8.65451C2.04565 9.83951 3.05824 10.6547 4.31105 10.9504C3.21715 11.5944 1.75295 11.9101 0.412189 11.7552C0.238495 11.7308 0.0729322 11.8412 0.0182373 12.0087C-0.0364577 12.1762 0.0352371 12.36 0.188235 12.4459C2.2223 13.5909 4.06123 14 5.65034 14C7.96305 14 9.74803 13.1344 10.8345 12.4104C13.7637 10.4613 15.5893 6.96185 15.335 3.83074C15.8044 3.48317 16.5065 2.84139 16.9419 2.15143C17.0321 2.0121 17.0158 1.82831 16.9035 1.70529Z" fill="black"/>
</svg>
