<svg width="29" height="25" viewBox="0 0 29 25" fill="none" xmlns="http://www.w3.org/2000/svg">
<path d="M28.7087 2.94155C28.5179 2.72807 28.2103 2.67438 27.958 2.80605C27.8011 2.88786 27.5061 2.99524 27.1558 3.10134C27.5977 2.50308 27.953 1.83322 28.1099 1.23112C28.1777 0.971616 28.0785 0.69805 27.8626 0.54337C27.6467 0.389968 27.3592 0.389968 27.1433 0.54337C26.8031 0.784977 25.1611 1.51108 24.123 1.74629C21.7768 -0.34636 19.0465 -0.563679 16.2082 1.12374C13.901 2.49541 13.3988 5.28476 13.4967 6.98496C8.21563 6.46723 4.93298 3.62674 3.08516 1.27586C2.95586 1.11096 2.74748 1.02403 2.55165 1.03681C2.34578 1.05215 2.15999 1.16848 2.05454 1.34873C1.18084 2.85079 0.938568 4.51136 1.35659 6.15148C1.58506 7.04632 1.98425 7.83507 2.44746 8.47424C2.22527 8.36302 2.01061 8.22368 1.8085 8.0575C1.62271 7.90154 1.36286 7.87214 1.14318 7.97568C0.924759 8.08179 0.785419 8.30678 0.785419 8.5535C0.785419 11.3697 2.51524 13.2489 4.13084 14.2306C3.86973 14.1987 3.59733 14.1399 3.32241 14.0542C3.08641 13.9814 2.83033 14.0542 2.66714 14.2434C2.50395 14.4313 2.46503 14.6998 2.56671 14.9286C3.47431 16.9727 5.19409 18.3789 7.32185 18.8889C5.46398 19.9998 2.9772 20.5444 0.700058 20.2772C0.405058 20.235 0.123867 20.4255 0.030974 20.7144C-0.0619194 21.0033 0.0598463 21.3204 0.319697 21.4686C3.77433 23.4437 6.89755 24.1493 9.59648 24.1493C13.5244 24.1493 16.556 22.6562 18.4013 21.4073C23.3761 18.0452 26.4767 12.0089 26.0449 6.60785C26.842 6.00831 28.0346 4.90126 28.7739 3.71112C28.9271 3.47079 28.8995 3.15376 28.7087 2.94155Z" fill="black"/>
</svg>
