<svg width="314" height="313" viewBox="0 0 314 313" fill="none" xmlns="http://www.w3.org/2000/svg">
<g filter="url(#filter0_d_71_78)">
<ellipse cx="152" cy="152.5" rx="141" ry="140.5" fill="#C4C4C4" fill-opacity="0.01" shape-rendering="crispEdges"/>
<path d="M292.702 143.286C292.834 145.319 292.922 147.364 292.967 149.419L291.467 149.452C291.489 150.465 291.5 151.481 291.5 152.5C291.5 153.519 291.489 154.535 291.467 155.548L292.967 155.581C292.922 157.636 292.834 159.681 292.702 161.714L291.205 161.617C291.073 163.646 290.897 165.663 290.679 167.667L292.17 167.83C291.948 169.872 291.682 171.901 291.372 173.916L289.89 173.688C289.581 175.698 289.23 177.694 288.836 179.674L290.307 179.967C289.906 181.982 289.462 183.981 288.976 185.964L287.519 185.607C287.035 187.58 286.509 189.536 285.942 191.475L287.382 191.896C286.805 193.866 286.187 195.818 285.527 197.751L284.108 197.266C283.452 199.187 282.756 201.089 282.02 202.971L283.417 203.518C282.669 205.428 281.881 207.317 281.054 209.186L279.682 208.578C278.861 210.433 277.999 212.266 277.1 214.077L278.443 214.744C277.531 216.58 276.58 218.393 275.591 220.182L274.279 219.457C273.298 221.231 272.279 222.982 271.224 224.708L272.504 225.491C271.435 227.239 270.329 228.963 269.186 230.66L267.942 229.822C266.81 231.504 265.642 233.16 264.44 234.788L265.647 235.679C264.43 237.327 263.178 238.947 261.892 240.539L260.725 239.597C259.452 241.173 258.145 242.721 256.805 244.239L257.929 245.232C256.575 246.767 255.187 248.273 253.767 249.747L252.687 248.707C251.282 250.166 249.845 251.595 248.378 252.992L249.413 254.079C247.931 255.49 246.418 256.87 244.875 258.217L243.889 257.087C242.363 258.418 240.809 259.718 239.226 260.983L240.162 262.155C238.564 263.432 236.937 264.676 235.283 265.884L234.398 264.673C232.763 265.867 231.102 267.027 229.414 268.15L230.246 269.399C228.543 270.533 226.814 271.631 225.061 272.691L224.284 271.408C222.553 272.455 220.798 273.466 219.018 274.439L219.738 275.755C217.944 276.735 216.127 277.678 214.287 278.583L213.626 277.236C211.811 278.128 209.974 278.982 208.116 279.796L208.718 281.17C206.847 281.99 204.954 282.771 203.041 283.512L202.5 282.113C200.615 282.842 198.711 283.532 196.788 284.182L197.268 285.603C195.333 286.256 193.379 286.868 191.407 287.439L190.99 285.998C189.05 286.56 187.092 287.081 185.118 287.56L185.471 289.017C183.487 289.499 181.487 289.938 179.471 290.335L179.181 288.863C177.2 289.253 175.203 289.601 173.192 289.907L173.417 291.39C171.402 291.696 169.373 291.959 167.33 292.179L167.169 290.688C165.165 290.904 163.147 291.077 161.118 291.208L161.214 292.705C159.181 292.835 157.137 292.923 155.081 292.967L155.049 291.467C154.035 291.489 153.019 291.5 152 291.5C150.981 291.5 149.965 291.489 148.951 291.467L148.919 292.967C146.864 292.923 144.819 292.835 142.786 292.705L142.882 291.208C140.853 291.077 138.835 290.904 136.831 290.688L136.67 292.179C134.628 291.959 132.598 291.696 130.583 291.39L130.808 289.907C128.797 289.601 126.8 289.253 124.819 288.863L124.529 290.335C122.513 289.938 120.513 289.499 118.529 289.017L118.882 287.56C116.908 287.081 114.95 286.56 113.01 285.998L112.593 287.439C110.621 286.868 108.667 286.256 106.733 285.603L107.212 284.182C105.289 283.532 103.385 282.842 101.5 282.113L100.959 283.512C99.0457 282.771 97.1531 281.99 95.2818 281.17L95.8839 279.796C94.0259 278.982 92.189 278.128 90.3744 277.236L89.7128 278.583C87.8729 277.678 86.0556 276.735 84.262 275.755L84.9817 274.439C83.2025 273.466 81.4468 272.455 79.7158 271.408L78.9395 272.691C77.1856 271.631 75.4568 270.533 73.7542 269.399L74.5856 268.15C72.8981 267.027 71.2365 265.867 69.602 264.673L68.7172 265.884C67.0629 264.676 65.436 263.432 63.8377 262.155L64.7743 260.983C63.1913 259.717 61.6366 258.418 60.1112 257.087L59.1247 258.217C57.582 256.87 56.0691 255.49 54.5869 254.078L55.6215 252.992C54.1546 251.595 52.7182 250.166 51.3135 248.707L50.2328 249.747C48.8131 248.273 47.4253 246.767 46.0706 245.232L47.1953 244.239C45.8555 242.721 44.5483 241.173 43.275 239.597L42.1082 240.539C40.8221 238.947 39.5701 237.327 38.3534 235.679L39.5601 234.788C38.3576 233.16 37.1899 231.504 36.0581 229.822L34.8137 230.66C33.6714 228.963 32.5652 227.239 31.4963 225.491L32.7761 224.708C31.7208 222.982 30.7022 221.231 29.7215 219.457L28.4087 220.182C27.4196 218.393 26.4686 216.58 25.5567 214.744L26.9001 214.077C26.0006 212.266 25.1395 210.433 24.3179 208.578L22.9465 209.186C22.1188 207.317 21.3307 205.428 20.5834 203.518L21.9803 202.971C21.2439 201.089 20.5476 199.187 19.8922 197.266L18.4725 197.751C17.813 195.818 17.1945 193.866 16.6182 191.896L18.0578 191.475C17.4906 189.536 16.9646 187.58 16.4809 185.607L15.0241 185.964C14.5378 183.981 14.0939 181.982 13.6931 179.967L15.1643 179.674C14.7704 177.694 14.4187 175.698 14.1102 173.688L12.6275 173.916C12.3183 171.901 12.052 169.872 11.8296 167.83L13.3208 167.667C13.1025 165.663 12.927 163.646 12.7952 161.617L11.2984 161.714C11.1663 159.681 11.0776 157.636 11.0332 155.581L12.5329 155.548C12.511 154.535 12.5 153.519 12.5 152.5C12.5 151.481 12.511 150.465 12.5329 149.452L11.0332 149.419C11.0776 147.364 11.1663 145.319 11.2984 143.286L12.7952 143.383C12.927 141.354 13.1025 139.337 13.3208 137.333L11.8296 137.17C12.052 135.128 12.3183 133.099 12.6275 131.084L14.1102 131.312C14.4187 129.302 14.7704 127.306 15.1643 125.326L13.6931 125.033C14.0939 123.018 14.5378 121.019 15.0241 119.036L16.4809 119.393C16.9646 117.42 17.4906 115.464 18.0578 113.525L16.6182 113.104C17.1945 111.134 17.813 109.182 18.4725 107.249L19.8922 107.734C20.5476 105.813 21.2439 103.911 21.9803 102.029L20.5834 101.482C21.3307 99.5724 22.1188 97.6827 22.9465 95.8144L24.3179 96.422C25.1395 94.5675 26.0006 92.7342 26.9001 90.9233L25.5567 90.256C26.4686 88.4201 27.4197 86.6069 28.4087 84.8176L29.7215 85.5432C30.7023 83.7687 31.7208 82.0178 32.7761 80.2916L31.4963 79.5092C32.5652 77.7608 33.6714 76.0374 34.8137 74.3402L36.0581 75.1777C37.1899 73.4961 38.3576 71.8405 39.5601 70.2119L38.3534 69.3209C39.5702 67.673 40.8221 66.0526 42.1082 64.4606L43.275 65.4033C44.5484 63.8272 45.8555 62.2793 47.1954 60.7608L46.0706 59.7683C47.4253 58.233 48.8131 56.7274 50.2328 55.2525L51.3135 56.2928C52.7182 54.8336 54.1546 53.4048 55.6215 52.0076L54.587 50.9215C56.0691 49.5098 57.5821 48.13 59.1248 46.7832L60.1113 47.9132C61.6366 46.5815 63.1913 45.2825 64.7743 44.0171L63.8378 42.8454C65.4361 41.5678 67.0629 40.3242 68.7172 39.1157L69.6021 40.3269C71.2366 39.1328 72.8981 37.9733 74.5856 36.8496L73.7542 35.6011C75.4568 34.4672 77.1856 33.3694 78.9395 32.3085L79.7158 33.592C81.4468 32.545 83.2025 31.5344 84.9817 30.5615L84.2621 29.2454C86.0556 28.2646 87.8729 27.3215 89.7128 26.4173L90.3744 27.7635C92.189 26.8717 94.0259 26.0181 95.8839 25.2037L95.2818 23.8299C97.1531 23.0096 99.0457 22.2287 100.959 21.4883L101.5 22.8871C103.385 22.1576 105.289 21.4677 107.212 20.8184L106.732 19.3972C108.667 18.744 110.621 18.1316 112.593 17.5608L113.01 19.0017C114.95 18.44 116.908 17.9192 118.882 17.4403L118.529 15.9825C120.513 15.5012 122.513 15.0617 124.529 14.6651L124.819 16.1368C126.8 15.7469 128.797 15.3988 130.808 15.0934L130.583 13.6104C132.598 13.3044 134.627 13.0409 136.67 12.8208L136.831 14.3122C138.835 14.0962 140.853 13.9226 142.882 13.7921L142.786 12.2952C144.819 12.1645 146.863 12.0768 148.919 12.0329L148.951 13.5325C149.965 13.5109 150.981 13.5 152 13.5C153.019 13.5 154.035 13.5109 155.049 13.5325L155.081 12.0329C157.136 12.0768 159.181 12.1645 161.214 12.2952L161.118 13.7921C163.147 13.9226 165.165 14.0962 167.169 14.3122L167.33 12.8208C169.372 13.0409 171.402 13.3044 173.417 13.6104L173.192 15.0934C175.203 15.3988 177.2 15.7469 179.181 16.1368L179.471 14.6651C181.487 15.0617 183.487 15.5012 185.471 15.9825L185.118 17.4402C187.092 17.9192 189.05 18.44 190.99 19.0017L191.407 17.5608C193.379 18.1316 195.333 18.744 197.267 19.3972L196.788 20.8184C198.711 21.4677 200.615 22.1576 202.5 22.8871L203.041 21.4883C204.954 22.2287 206.847 23.0096 208.718 23.8298L208.116 25.2037C209.974 26.0181 211.811 26.8717 213.626 27.7635L214.287 26.4173C216.127 27.3215 217.944 28.2646 219.738 29.2454L219.018 30.5615C220.798 31.5345 222.553 32.545 224.284 33.592L225.061 32.3085C226.814 33.3694 228.543 34.4673 230.246 35.6011L229.414 36.8496C231.102 37.9734 232.763 39.1328 234.398 40.3269L235.283 39.1157C236.937 40.3242 238.564 41.5679 240.162 42.8455L239.226 44.0171C240.809 45.2825 242.363 46.5815 243.889 47.9132L244.875 46.7832C246.418 48.13 247.931 49.5098 249.413 50.9215L248.379 52.0077C249.845 53.4049 251.282 54.8336 252.687 56.2929L253.767 55.2526C255.187 56.7274 256.575 58.233 257.929 59.7684L256.805 60.7608C258.145 62.2793 259.452 63.8272 260.725 65.4033L261.892 64.4607C263.178 66.0526 264.43 67.673 265.647 69.3209L264.44 70.2119C265.642 71.8405 266.81 73.4962 267.942 75.1778L269.186 74.3402C270.329 76.0374 271.435 77.7608 272.504 79.5093L271.224 80.2917C272.279 82.0178 273.298 83.7687 274.279 85.5432L275.591 84.8176C276.58 86.607 277.531 88.4201 278.443 90.256L277.1 90.9233C277.999 92.7342 278.861 94.5675 279.682 96.422L281.054 95.8144C281.881 97.6827 282.669 99.5724 283.417 101.482L282.02 102.029C282.756 103.911 283.452 105.813 284.108 107.734L285.527 107.249C286.187 109.182 286.805 111.134 287.382 113.104L285.942 113.525C286.509 115.464 287.035 117.42 287.519 119.393L288.976 119.036C289.462 121.019 289.906 123.018 290.307 125.033L288.836 125.326C289.23 127.306 289.581 129.302 289.89 131.312L291.372 131.084C291.682 133.099 291.948 135.128 292.17 137.17L290.679 137.333C290.897 139.337 291.073 141.354 291.205 143.383L292.702 143.286Z" stroke="#0045A4" stroke-width="3" stroke-dasharray="6 6" shape-rendering="crispEdges"/>
</g>
<defs>
<filter id="filter0_d_71_78" x="0" y="0" width="314" height="313" filterUnits="userSpaceOnUse" color-interpolation-filters="sRGB">
<feFlood flood-opacity="0" result="BackgroundImageFix"/>
<feColorMatrix in="SourceAlpha" type="matrix" values="0 0 0 0 0 0 0 0 0 0 0 0 0 0 0 0 0 0 127 0" result="hardAlpha"/>
<feMorphology radius="2" operator="dilate" in="SourceAlpha" result="effect1_dropShadow_71_78"/>
<feOffset dx="5" dy="4"/>
<feGaussianBlur stdDeviation="7"/>
<feComposite in2="hardAlpha" operator="out"/>
<feColorMatrix type="matrix" values="0 0 0 0 0 0 0 0 0 0 0 0 0 0 0 0 0 0 0.25 0"/>
<feBlend mode="normal" in2="BackgroundImageFix" result="effect1_dropShadow_71_78"/>
<feBlend mode="normal" in="SourceGraphic" in2="effect1_dropShadow_71_78" result="shape"/>
</filter>
</defs>
</svg>
