<svg width="26" height="24" viewBox="0 0 26 24" fill="none" xmlns="http://www.w3.org/2000/svg">
<path fill-rule="evenodd" clip-rule="evenodd" d="M13 0C5.82045 0 0 5.27399 0 11.7795C0 18.285 5.82045 23.559 13 23.559C20.1795 23.559 26 18.285 26 11.7795C26 5.27399 20.1795 0 13 0ZM14.1818 16.0629C14.1818 16.3469 14.0573 16.6193 13.8357 16.8201C13.614 17.021 13.3134 17.1338 13 17.1338C12.6866 17.1338 12.386 17.021 12.1643 16.8201C11.9427 16.6193 11.8182 16.3469 11.8182 16.0629V12.8503H8.27273C7.95929 12.8503 7.65869 12.7375 7.43706 12.5367C7.21542 12.3359 7.09091 12.0635 7.09091 11.7795C7.09091 11.4955 7.21542 11.2231 7.43706 11.0223C7.65869 10.8214 7.95929 10.7086 8.27273 10.7086H11.8182V7.49603C11.8182 7.21202 11.9427 6.93964 12.1643 6.73882C12.386 6.53799 12.6866 6.42517 13 6.42517C13.3134 6.42517 13.614 6.53799 13.8357 6.73882C14.0573 6.93964 14.1818 7.21202 14.1818 7.49603V10.7086H17.7273C18.0407 10.7086 18.3413 10.8214 18.5629 11.0223C18.7846 11.2231 18.9091 11.4955 18.9091 11.7795C18.9091 12.0635 18.7846 12.3359 18.5629 12.5367C18.3413 12.7375 18.0407 12.8503 17.7273 12.8503H14.1818V16.0629Z" fill="white"/>
</svg>
